<svg fill="none" height="24" viewBox="0 0 24 24" width="24" xmlns="http://www.w3.org/2000/svg"><path d="m4 19-.44721-.2236c-.08733.1746-.06499.3841.05719.5365.12218.1523.32185.2195.51129.1722zm15.5-7.5c0 3.866-3.134 7-7 7v1c4.4183 0 8-3.5817 8-8zm-14 0c0-3.86599 3.13401-7 7-7v-1c-4.41828 0-8 3.58172-8 8zm7-7c3.866 0 7 3.13401 7 7h1c0-4.41828-3.5817-8-8-8zm0 14c-.5821 0-1.252-.2167-1.9692-.4712-.3437-.122-.70179-.2533-1.0332-.3518-.32863-.0977-.67406-.177-.9976-.177v1c.17646 0 .41058.0457.71262.1355.29927.089.62301.2077.98378.3357.692.2455 1.522.5288 2.3036.5288zm-4-1c-.11255 0-.27171.0241-.42258.0504-.16556.0288-.3693.0692-.59449.1166-.45104.0949-1.00237.221-1.53495.3463-.53321.1255-1.0504.2508-1.4341.3448-.19191.047-.35056.0862-.46129.1136-.05536.0137-.09875.0245-.12834.0319-.01479.0037-.02614.0065-.0338.0084-.00383.001-.00674.0017-.0087.0022-.00099.0002-.00173.0004-.00223.0005-.00025.0001-.00045.0001-.00058.0002-.00006 0-.00012 0-.00015 0-.00004 0-.00006 0 .12121.4851s.12128.4851.1213.4851c.00003 0 .00007-.0001.00012-.0001.00011 0 .00029 0 .00052-.0001.00047-.0001.00117-.0003.00212-.0005.00188-.0005.00472-.0012.00847-.0021.0075-.0019.01868-.0047.03331-.0083.02925-.0073.07228-.018.12727-.0316.10997-.0273.26773-.0662.45864-.113.38192-.0935.89598-.2182 1.42527-.3427.52992-.1247 1.07234-.2486 1.51192-.3412.22013-.0463.41092-.084.55982-.1099.07454-.013.13537-.0224.18229-.0285.0515-.0066.07071-.0071.06895-.0071zm-4.5 1.5c.44721.2236.44723.2236.44726.2235.00002 0 .00005-.0001.00008-.0001.00007-.0002.00015-.0004.00026-.0006.00023-.0004.00054-.001.00094-.0018.0008-.0016.00195-.004.00345-.007.00301-.006.00738-.0148.01305-.0263.01133-.0229.02781-.0564.0487-.0991.04177-.0856.10123-.2085.1725-.3589.14238-.3006.33265-.7128.52333-1.1577.19013-.4437.38359-.9266.5304-1.367.14069-.4221.26003-.8658.26003-1.205h-1c0 .1608-.06816.4671-.20872.8888-.13444.4033-.31598.8579-.50085 1.2892-.18432.4301-.36905.8304-.50792 1.1236-.06936.1464-.12708.2657-.16734.3481-.02013.0412-.03588.0732-.04652.0947-.00532.0108-.00936.0189-.01204.0243-.00134.0027-.00233.0047-.00297.006-.00032.0006-.00056.0011-.0007.0014-.00007.0001-.00012.0002-.00014.0003-.00002 0-.00002 0-.00003 0 .00001 0 .00002 0 .44723.2236zm2-4c0-.5586-.13724-1.2669-.25926-1.8921-.12961-.664-.24074-1.2302-.24074-1.6079h-1c0 .4989.13887 1.1827.25926 1.7995.12798.6557.24074 1.2591.24074 1.7005z" fill="#09090b"/></svg>