<svg xmlns="http://www.w3.org/2000/svg" fill="none" viewBox="0 0 24 24" id="Copyright--Streamline-Rounded-Material" height="24" width="24"><desc>Copyright Streamline Icon: https://streamlinehq.com</desc><path fill="#000000" d="M12.00675 22c-1.379 0 -2.67485 -0.2625 -3.8875 -0.7875 -1.21285 -0.525 -2.2734 -1.24165 -3.18175 -2.15 -0.908335 -0.90835 -1.625 -1.9695 -2.15 -3.1835C2.2625 14.665 2 13.36785 2 11.9875s0.2625 -2.6775 0.7875 -3.8915c0.525 -1.214 1.241665 -2.271 2.15 -3.171 0.90835 -0.9 1.9695 -1.6125 3.1835 -2.1375C9.335 2.2625 10.63215 2 12.0125 2s2.6775 0.2625 3.8915 0.7875c1.214 0.525 2.271 1.2375 3.171 2.1375 0.9 0.9 1.6125 1.95835 2.1375 3.175C21.7375 9.31665 22 10.6144 22 11.99325c0 1.379 -0.2625 2.67485 -0.7875 3.8875 -0.525 1.21285 -1.2375 2.2719 -2.1375 3.17725 -0.9 0.90515 -1.95835 1.62185 -3.175 2.15C14.68335 21.736 13.3856 22 12.00675 22Zm0.00575 -1.5c2.35835 0 4.3625 -0.82915 6.0125 -2.4875 1.65 -1.65835 2.475 -3.66665 2.475 -6.025s-0.8234 -4.3625 -2.47025 -6.0125C16.3829 4.325 14.373 3.5 12 3.5c-2.35 0 -4.35415 0.823415 -6.0125 2.47025C4.329165 7.6171 3.5 9.627 3.5 12c0 2.35 0.829165 4.35415 2.4875 6.0125C7.64585 19.67085 9.65415 20.5 12.0125 20.5Zm-2.1875 -4.5h4.325c0.23335 0 0.40415 -0.0791 0.5125 -0.23725 0.10835 -0.15815 0.1625 -0.3541 0.1625 -0.58775V14.1c0 -0.2125 -0.07235 -0.39065 -0.217 -0.5345 -0.1445 -0.14365 -0.32365 -0.2155 -0.5375 -0.2155 -0.21365 0 -0.39135 0.07185 -0.533 0.2155 -0.14165 0.14385 -0.2125 0.322 -0.2125 0.5345v0.4H10.65V9.5h2.675v0.425c0 0.2125 0.07235 0.3906 0.217 0.53425 0.1445 0.14385 0.32365 0.21575 0.5375 0.21575 0.21365 0 0.39135 -0.0719 0.533 -0.21575 0.14165 -0.14365 0.2125 -0.32175 0.2125 -0.53425V8.85c0 -0.24085 -0.05415 -0.44265 -0.1625 -0.6055 -0.10835 -0.163 -0.27915 -0.2445 -0.5125 -0.2445h-4.325c-0.23335 0 -0.40415 0.0815 -0.5125 0.2445 -0.10835 0.16285 -0.1625 0.36465 -0.1625 0.6055v6.325c0 0.23365 0.05415 0.4296 0.1625 0.58775S9.59165 16 9.825 16Z" stroke-width="0.5"></path></svg>