<?xml version="1.0" encoding="iso-8859-1"?>
<!-- Uploaded to: SVG Repo, www.svgrepo.com, Generator: SVG Repo Mixer Tools -->
<!DOCTYPE svg PUBLIC "-//W3C//DTD SVG 1.1//EN" "http://www.w3.org/Graphics/SVG/1.1/DTD/svg11.dtd">
<svg fill="#000000" version="1.1" id="Capa_1" xmlns="http://www.w3.org/2000/svg" xmlns:xlink="http://www.w3.org/1999/xlink" 
	 width="800px" height="800px" viewBox="0 0 85.215 85.214"
	 xml:space="preserve">
<g>
	<path d="M1.253,80.482l3.477,3.478c-2.277,1.195-3.83,1.577-4.441,0.966C-0.325,84.311,0.058,82.76,1.253,80.482z M0.415,77.756
		l7.041,7.041c3.833-1.383,8.784-4.256,14.321-8.308L8.721,63.436C4.671,68.973,1.797,73.923,0.415,77.756z M32.903,37.177
		l15.131,15.132c-2.284,2.561-4.731,5.157-7.33,7.755c-5.927,5.927-11.859,11.098-17.307,15.22L9.927,61.815
		c4.123-5.448,9.293-11.381,15.22-17.308C27.747,41.91,30.343,39.461,32.903,37.177z M24.125,68.564
		c-1.011,0.771-0.034,2.52,0.987,1.738C31.854,65.16,37.5,58.912,43.444,52.905c0.907-0.916-0.507-2.332-1.415-1.414
		C36.22,57.361,30.715,63.535,24.125,68.564z M81.717,20.386L53.353,48.751c-1.067,1.065-2.29,1.878-3.591,2.456L34.005,35.452
		c0.579-1.302,1.389-2.525,2.456-3.592L61.055,7.266L56.933,8.48L35.754,29.659c-0.585,0.585-1.536,0.585-2.121,0
		c-0.586-0.586-0.586-1.536,0-2.121L55.082,6.089c0.178-0.178,0.396-0.308,0.637-0.379l9.873-2.906
		c4.692-3.951,11.707-3.726,16.125,0.692C86.381,8.16,86.381,15.722,81.717,20.386z M77.916,4.999
		c-1.009-0.773-2.436,0.631-1.414,1.414c3.172,2.428,3.522,6.876,1.782,10.289c-0.583,1.146,1.151,2.141,1.739,0.987
		C82.125,13.566,81.793,7.968,77.916,4.999z"/>
</g>
</svg>