<svg width="24" height="24" viewBox="0 0 24 24" fill="none" xmlns="http://www.w3.org/2000/svg">
<path d="M12 5C10.8268 5 9.72104 5.28861 8.7498 5.7987M12 5C13.1732 5 14.279 5.28861 15.2502 5.7987M12 5V3M19 21L15.8482 17.8482M15.8482 17.8482C17.747 16.5963 19 14.4445 19 12C19 11.2761 18.8901 10.5779 18.6862 9.92117M15.8482 17.8482C14.7441 18.5763 13.4215 19 12 19C10.5785 19 9.25593 18.5763 8.15176 17.8482M5 21L8.15176 17.8482M8.15176 17.8482C6.25299 16.5963 5 14.4445 5 12C5 11.2761 5.10987 10.5779 5.31385 9.92117M10.5 14.5L11.7071 13.2929C11.8946 13.1054 12 12.851 12 12.5858V9M5.31385 9.92117C3.98766 9.61087 3 8.42078 3 7C3 5.34315 4.34315 4 6 4C7.22969 4 8.28657 4.73985 8.7498 5.7987M5.31385 9.92117C5.86868 8.13471 7.11977 6.65478 8.7498 5.7987M18.6862 9.92117C20.0123 9.61087 21 8.42078 21 7C21 5.34315 19.6569 4 18 4C16.7703 4 15.7134 4.73985 15.2502 5.7987M18.6862 9.92117C18.1313 8.13471 16.8802 6.65478 15.2502 5.7987M12 3H11M12 3H13" stroke="black" stroke-linecap="round" stroke-linejoin="round"/>
</svg>
