<svg width="24" height="24" viewBox="0 0 24 24" fill="none" xmlns="http://www.w3.org/2000/svg">
<path d="M19 14V15C19 16.1046 18.1046 17 17 17H5C3.89543 17 3 16.1046 3 15V9C3 7.89543 3.89543 7 5 7H17C18.1046 7 19 7.89543 19 9V10M19 14V14C20.1046 14 21 13.1046 21 12V12C21 10.8954 20.1046 10 19 10V10M19 14V10M8 10H14C15.1046 10 16 10.8954 16 12V12C16 13.1046 15.1046 14 14 14H8C6.89543 14 6 13.1046 6 12V12C6 10.8954 6.89543 10 8 10Z" stroke="black" stroke-linecap="round" stroke-linejoin="round"/>
</svg>
