<svg width="24" height="24" viewBox="0 0 24 24" fill="none" xmlns="http://www.w3.org/2000/svg">
<path d="M12 19L11.4142 19.5858C10.6332 20.3668 9.36684 20.3668 8.58579 19.5858L8 19M12 19L19 12M12 19L11.4142 18.4142C10.6332 17.6332 9.36683 17.6332 8.58579 18.4142L8 19M8 19L5 16M5 16L4.41421 15.4142C3.63317 14.6332 3.63316 13.3668 4.41421 12.5858L5 12M5 16L5.58579 15.4142C6.36684 14.6332 6.36683 13.3668 5.58579 12.5858L5 12M5 12L12 5M12 5L12.5858 4.41421C13.3668 3.63317 14.6332 3.63316 15.4142 4.41421L16 5M12 5L12.5858 5.58579C13.3668 6.36684 14.6332 6.36683 15.4142 5.58579L16 5M16 5L19 8M19 8L19.5858 8.58579C20.3668 9.36683 20.3668 10.6332 19.5858 11.4142L19 12M19 8L18.4142 8.58579C17.6332 9.36684 17.6332 10.6332 18.4142 11.4142L19 12M14 12C14 13.1046 13.1046 14 12 14C10.8954 14 10 13.1046 10 12C10 10.8954 10.8954 10 12 10C13.1046 10 14 10.8954 14 12Z" stroke="black" stroke-linecap="round" stroke-linejoin="round"/>
</svg>
