<svg width="24" height="24" viewBox="0 0 24 24" fill="none" xmlns="http://www.w3.org/2000/svg">
<path d="M13 12L13.9751 12.4875C14.6032 12.8016 15 13.4436 15 14.1459C15 15.1699 14.1699 16 13.1459 16H13M13 12L13.9751 11.5125C14.6032 11.1984 15 10.5564 15 9.8541C15 8.83011 14.1699 8 13.1459 8H13M13 12H10M10 8V12M10 8H13M10 8V6.5M10 8H8.5M10 12V16M10 16V17.5M10 16H13M10 16H8.5M13 8V6.5M13 16V17.5M21 12C21 16.9706 16.9706 21 12 21C7.02944 21 3 16.9706 3 12C3 7.02944 7.02944 3 12 3C16.9706 3 21 7.02944 21 12Z" stroke="black" stroke-linecap="round" stroke-linejoin="round"/>
</svg>
