<svg width="24" height="24" viewBox="0 0 24 24" fill="none" xmlns="http://www.w3.org/2000/svg">
<path d="M14.5 12L11 17M11 17L8.8 19.9333C8.29639 20.6048 7.50602 21 6.66667 21H5.8541C4.83011 21 4 20.1699 4 19.1459V19.1459C4 18.4436 4.39678 17.8016 5.02492 17.4875L6 17M11 17H14C15.259 17 16.4446 16.4072 17.2 15.4L18.0495 14.2673C18.6601 13.4532 18.9374 12.437 18.8251 11.4256L18.3954 7.55827C18.1703 5.53254 16.458 4 14.4198 4H8.9225C7.70736 4 6.55811 4.55236 5.79902 5.50122L4.11572 7.60535C3.40569 8.49289 3.10676 9.64058 3.29362 10.7617L3.5 12M4 15L6 17M4 15L7 10M4 15L3.5 12M10 11L6 17M3.5 12L5 9" stroke="black" stroke-linecap="round" stroke-linejoin="round"/>
</svg>
