<svg width="24" height="24" viewBox="0 0 24 24" fill="none" xmlns="http://www.w3.org/2000/svg">
<path d="M6 16L7 14.5M9 9L15 8M9 9L13 13M9 9L7 6H5M9 9L7.41644 13.3548M13 13L15 8M13 13L8.36808 14.158M15 8L18 16M15 8L14 5L17 4L18 5M7 14.5L7.41644 13.3548M7 14.5L8.36808 14.158M7.41644 13.3548C6.99457 13.1284 6.51228 13 6 13C4.34315 13 3 14.3431 3 16C3 17.6569 4.34315 19 6 19C7.65685 19 9 17.6569 9 16C9 15.3056 8.7641 14.6664 8.36808 14.158M7.41644 13.3548C7.7872 13.5537 8.1113 13.8283 8.36808 14.158M21 16C21 17.6569 19.6569 19 18 19C16.3431 19 15 17.6569 15 16C15 14.3431 16.3431 13 18 13C19.6569 13 21 14.3431 21 16Z" stroke="black" stroke-linecap="round" stroke-linejoin="round"/>
</svg>
