<svg width="24" height="24" viewBox="0 0 24 24" fill="none" xmlns="http://www.w3.org/2000/svg">
<path d="M21 12H12M21 12H15M21 12L18 16.8342M12 12L10 13M12 12H15M10 13H4M10 13H5M4 13H5M4 13V16.3352M15 12L12.6 8.8C12.2223 8.29639 11.6295 8 11 8H7M7 8L5 13M7 8H5M3 16C3 16 3.40236 16.1507 4 16.3352M21 16C21 16 19.4976 16.55 18 16.8342M18 16.8342C17.4782 16.9332 16.9569 17 16.5 17C15.2873 17 13.6214 16.5296 12.6943 16.2341C12.2434 16.0903 11.7569 16.0905 11.306 16.2341C10.386 16.5272 8.73513 16.9922 7.5 17C6.39477 17.007 4.95045 16.6285 4 16.3352" stroke="black" stroke-linecap="round" stroke-linejoin="round"/>
</svg>
