<svg width="24" height="24" viewBox="0 0 24 24" fill="none" xmlns="http://www.w3.org/2000/svg">
<path d="M10 7.5C10 8.60457 9.10457 9.5 8 9.5M10 7.5C10 6.39543 9.10457 5.5 8 5.5C6.89543 5.5 6 6.39543 6 7.5C6 8.60457 6.89543 9.5 8 9.5M10 7.5L16 6M8 9.5L6 15M16 6C16 7.10457 16.8954 8 18 8M16 6C16 4.89543 16.8954 4 18 4C19.1046 4 20 4.89543 20 6C20 7.10457 19.1046 8 18 8M6 15C4.89543 15 4 15.8954 4 17C4 18.1046 4.89543 19 6 19C7.10457 19 8 18.1046 8 17M6 15C7.10457 15 8 15.8954 8 17M8 17L15 19M15 19C15 20.1046 15.8954 21 17 21C18.1046 21 19 20.1046 19 19C19 17.8954 18.1046 17 17 17M15 19C15 17.8954 15.8954 17 17 17M17 17L18 8" stroke="black" stroke-linecap="round" stroke-linejoin="round"/>
</svg>
