<svg width="24" height="24" viewBox="0 0 24 24" fill="none" xmlns="http://www.w3.org/2000/svg">
<path d="M5 14V14C4.44772 14 4 13.5523 4 13V12.9172C4 12.3879 4.38266 11.9362 4.90476 11.8492L7.96255 11.3396C9.07702 11.1538 9.81649 10.0825 9.59491 8.97455L9.03884 6.19419C9.01301 6.06505 8.99787 5.93335 9.00644 5.80192C9.10841 4.23741 10.4097 3 12 3C13.5903 3 14.8916 4.23741 14.9936 5.80192C15.0021 5.93335 14.987 6.06505 14.9612 6.19419L14.4051 8.97455C14.1835 10.0825 14.923 11.1538 16.0375 11.3396L19.0952 11.8492C19.6173 11.9362 20 12.3879 20 12.9172V13C20 13.5523 19.5523 14 19 14V14M5 14V19C5 20.1046 5.89543 21 7 21H8M5 14H19M19 14V19C19 20.1046 18.1046 21 17 21H16M16 21H12M16 21V17M12 21H8M12 21V19M8 21V18" stroke="black" stroke-linecap="round" stroke-linejoin="round"/>
</svg>
