<svg width="24" height="24" viewBox="0 0 24 24" fill="none" xmlns="http://www.w3.org/2000/svg">
<path d="M21 12L20.1344 15.4626C20.0464 15.8142 19.8646 16.1354 19.6083 16.3917L19.5858 16.4142C19.2107 16.7893 18.702 17 18.1716 17H17.95M21 12L19.1525 7.38115C19.0519 7.12967 18.9012 6.90124 18.7097 6.70972L17.5858 5.58579C17.2107 5.21071 16.702 5 16.1716 5H15M21 12H17C15.8954 12 15 11.1046 15 10V5M15 5H5C3.89543 5 3 5.89543 3 7V15C3 16.1046 3.89543 17 5 17H5.05001M9.94999 17C9.71836 15.8589 8.70948 15 7.5 15C6.29052 15 5.28164 15.8589 5.05001 17M9.94999 17C9.98278 17.1616 10 17.3288 10 17.5C10 18.8807 8.88071 20 7.5 20C6.11929 20 5 18.8807 5 17.5C5 17.3288 5.01722 17.1616 5.05001 17M9.94999 17H13.05M17.95 17C17.7184 15.8589 16.7095 15 15.5 15C14.2905 15 13.2816 15.8589 13.05 17M17.95 17C17.9828 17.1616 18 17.3288 18 17.5C18 18.8807 16.8807 20 15.5 20C14.1193 20 13 18.8807 13 17.5C13 17.3288 13.0172 17.1616 13.05 17" stroke="black" stroke-linejoin="round"/>
</svg>
