<svg width="24" height="24" viewBox="0 0 24 24" fill="none" xmlns="http://www.w3.org/2000/svg">
<path d="M4 11V16C4 17.1046 4.89543 18 6 18V18M4 11V6C4 4.89543 4.89543 4 6 4H18C19.1046 4 20 4.89543 20 6V11M4 11H20M20 11V16C20 17.1046 19.1046 18 18 18V18M15 18H9M15 18V19.5C15 20.3284 15.6716 21 16.5 21V21C17.3284 21 18 20.3284 18 19.5V18M15 18H18M9 18V19.5C9 20.3284 8.32843 21 7.5 21V21C6.67157 21 6 20.3284 6 19.5V18M9 18H6M8 14H7M16 14H17" stroke="black" stroke-linecap="round" stroke-linejoin="round"/>
</svg>
