<svg width="24" height="24" viewBox="0 0 24 24" fill="none" xmlns="http://www.w3.org/2000/svg">
<path d="M20 3L17.5 5.5M17.5 5.5L15 8M17.5 5.5L15 3M17.5 5.5L20 8M8.53333 15.4667C5.79542 12.7288 4.52735 10.207 4.1373 9.32869C4.04127 9.11244 4 8.87888 4 8.64226L4 6.82843C4 6.29799 4.21071 5.78929 4.58579 5.41421L5.58579 4.41421C6.36683 3.63317 7.63317 3.63317 8.41421 4.41421L9.84062 5.84062C10.5148 6.51475 10.6193 7.57099 10.0905 8.36424L9.64381 9.03429C9.24569 9.63146 9.19507 10.3983 9.56019 11.0162C9.94122 11.661 10.4706 12.4706 11 13C11.5294 13.5294 12.339 14.0588 12.9838 14.4398C13.6017 14.8049 14.3685 14.7543 14.9657 14.3562L15.6358 13.9095C16.429 13.3807 17.4852 13.4852 18.1594 14.1594L19.5858 15.5858C20.3668 16.3668 20.3668 17.6332 19.5858 18.4142L18.5858 19.4142C18.2107 19.7893 17.702 20 17.1716 20H15.3577C15.1211 20 14.8876 19.9587 14.6713 19.8627C13.793 19.4727 11.2712 18.2046 8.53333 15.4667Z" stroke="black" stroke-linecap="round" stroke-linejoin="round"/>
</svg>
