<svg width="24" height="24" viewBox="0 0 24 24" fill="none" xmlns="http://www.w3.org/2000/svg">
<path d="M16 10L19.3922 10.6784C20.3271 10.8654 21 11.6862 21 12.6396V14.3212C21 15.2484 20.2484 16 19.3212 16H17.9539C17.9516 16 17.9497 15.9984 17.9492 15.9962V15.9962M16 10L14.5528 7.10557C14.214 6.428 13.5215 6 12.7639 6H11M16 10H13C11.8954 10 11 9.10457 11 8V6M13.05 16H9.95391C9.95163 16 9.94966 15.9984 9.94921 15.9962V15.9962M7.5 14C6.11929 14 5 15.1193 5 16.5C5 17.8807 6.11929 19 7.5 19C8.88071 19 10 17.8807 10 16.5C10 16.3274 9.98251 16.1589 9.94921 15.9962M7.5 14C6.61631 14 5.8397 14.4585 5.3951 15.1506C5.10514 15.6019 4.66446 16 4.12799 16V16C3.50502 16 3 15.495 3 14.872V9.60555C3 9.2107 3.11688 8.82469 3.3359 8.49615L4.40627 6.8906C4.7772 6.3342 5.40166 6 6.07037 6H11M7.5 14C8.70812 14 9.71609 14.857 9.94921 15.9962M17.9492 15.9962C17.7161 14.857 16.7081 14 15.5 14C14.1193 14 13 15.1193 13 16.5C13 17.8807 14.1193 19 15.5 19C16.8807 19 18 17.8807 18 16.5C18 16.3274 17.9825 16.1589 17.9492 15.9962Z" stroke="black" stroke-linecap="round" stroke-linejoin="round"/>
</svg>
