<svg width="24" height="24" viewBox="0 0 24 24" fill="none" xmlns="http://www.w3.org/2000/svg">
<path d="M19 17V18C19 19.1046 18.1046 20 17 20V20C15.8954 20 15 19.1046 15 18V17M19 17V17C19.5523 17 20 16.5523 20 16V12.2361C20 11.4785 19.572 10.786 18.8944 10.4472L18 10M19 17H15M5 17V17C4.44772 17 4 16.5523 4 16V12.2361C4 11.4785 4.428 10.786 5.10557 10.4472L6 10M5 17V18C5 19.1046 5.89543 20 7 20V20C8.10457 20 9 19.1046 9 18V17M5 17H9M9 17H15M6 10L6.67845 6.60777C6.86542 5.67292 7.68625 5 8.63961 5H15.3604C16.3138 5 17.1346 5.67292 17.3216 6.60777L18 10M6 10H18M17 13H16M7 13H8" stroke="black" stroke-linecap="round" stroke-linejoin="round"/>
</svg>
