<svg width="24" height="24" viewBox="0 0 24 24" fill="none" xmlns="http://www.w3.org/2000/svg">
<path d="M3 12C3 12 3.2443 13.1401 4.02867 14.5M21 12C21 12 20.7557 13.1401 19.9713 14.5M12 19V21M12 19C13.1314 19 14.1262 18.8407 15 18.5702M12 19C10.8686 19 9.87376 18.8407 9 18.5702M15 18.5702L16 20.5M15 18.5702C16.1703 18.2078 17.1234 17.646 17.8963 17M17.8963 17L19.5 18.5702M17.8963 17C18.828 16.2214 19.498 15.3207 19.9713 14.5M19.9713 14.5L21 15M9 18.5702L8 20.5M9 18.5702C6.41911 17.7711 4.8947 16.0015 4.02867 14.5M6.10368 17L4.5 18.5M4.02867 14.5L3 15" stroke="black" stroke-linecap="round" stroke-linejoin="round"/>
</svg>
