<svg width="24" height="24" viewBox="0 0 24 24" fill="none" xmlns="http://www.w3.org/2000/svg">
<path d="M11.7462 6.00633C11.1302 4.25524 9.46169 3 7.5 3C5.01472 3 3 5.01472 3 7.5C3 8.91825 3.6561 10.1833 4.68133 11.0081M11.7462 6.00633C9.4178 6.12275 7.50897 7.83192 7.08698 10.0665C6.17403 10.2013 5.34799 10.5345 4.68133 11.0081M11.7462 6.00633C11.8303 6.00213 11.9149 6 12 6C14.4424 6 16.4758 7.75123 16.913 10.0665C19.2385 10.4098 21 12.0403 21 14C21 16.2091 18.7614 18 16 18H12H8C5.23858 18 3 16.2091 3 14C3 12.8097 3.64991 11.7408 4.68133 11.0081" stroke="black" stroke-linecap="round" stroke-linejoin="round"/>
</svg>
