<svg width="24" height="24" viewBox="0 0 24 24" fill="none" xmlns="http://www.w3.org/2000/svg">
<path d="M10.1889 13H6.88889C4.74111 13 3 11.6569 3 10C3 8.53024 4.37009 7.30735 6.17877 7.0499C6.51883 5.31342 8.10035 4 10 4C11.8997 4 13.4812 5.31342 13.8212 7.0499C15.6299 7.30735 17 8.53024 17 10C17 10.3831 16.9069 10.7494 16.7372 11.0862M16.7372 11.0862C16.0345 10.4147 15.0675 10 14 10C12.1003 10 10.5188 11.3134 10.1788 13.0499C8.37009 13.3073 7 14.5302 7 16C7 17.6569 8.74111 19 10.8889 19H14H17.1111C19.2589 19 21 17.6569 21 16C21 14.5302 19.6299 13.3073 17.8212 13.0499C17.6723 12.2892 17.2851 11.6097 16.7372 11.0862Z" stroke="black" stroke-linecap="round" stroke-linejoin="round"/>
</svg>
