<svg width="24" height="24" viewBox="0 0 24 24" fill="none" xmlns="http://www.w3.org/2000/svg">
<path d="M7 20C5.34315 20 4 18.6569 4 17V6C4 4.89543 4.89543 4 6 4H8C9.10457 4 10 4.89543 10 6V10M7 20C8.1945 20 9.22594 19.3019 9.70859 18.2914M7 20H18C19.1046 20 20 19.1046 20 18V16C20 14.8954 19.1046 14 18 14H14M9.70859 18.2914C9.8954 17.9003 10 17.4624 10 17V10M9.70859 18.2914L14 14M10 10L13.5858 6.41421C14.3668 5.63317 15.6332 5.63316 16.4142 6.41421L17.5858 7.58579C18.3668 8.36683 18.3668 9.63317 17.5858 10.4142L14 14M7 17H7.00898" stroke="black" stroke-linecap="round" stroke-linejoin="round"/>
</svg>
