<svg width="24" height="24" viewBox="0 0 24 24" fill="none" xmlns="http://www.w3.org/2000/svg">
<path d="M4 19L3.55279 18.7764C3.46546 18.951 3.4878 19.1605 3.60998 19.3129C3.73216 19.4652 3.93183 19.5324 4.12127 19.4851L4 19ZM19.5 11.5C19.5 15.366 16.366 18.5 12.5 18.5V19.5C16.9183 19.5 20.5 15.9183 20.5 11.5H19.5ZM5.5 11.5C5.5 7.63401 8.63401 4.5 12.5 4.5V3.5C8.08172 3.5 4.5 7.08172 4.5 11.5H5.5ZM12.5 4.5C16.366 4.5 19.5 7.63401 19.5 11.5H20.5C20.5 7.08172 16.9183 3.5 12.5 3.5V4.5ZM12.5 18.5C11.9179 18.5 11.248 18.2833 10.5308 18.0288C10.1871 17.9068 9.82901 17.7755 9.4976 17.677C9.16897 17.5793 8.82354 17.5 8.5 17.5V18.5C8.67646 18.5 8.91058 18.5457 9.21262 18.6355C9.51189 18.7245 9.83563 18.8432 10.1964 18.9712C10.8884 19.2167 11.7184 19.5 12.5 19.5V18.5ZM8.5 17.5C8.38745 17.5 8.22829 17.5241 8.07742 17.5504C7.91186 17.5792 7.70812 17.6196 7.48293 17.667C7.03189 17.7619 6.48056 17.888 5.94798 18.0133C5.41477 18.1388 4.89758 18.2641 4.51388 18.3581C4.32197 18.4051 4.16332 18.4443 4.05259 18.4717C3.99723 18.4854 3.95384 18.4962 3.92425 18.5036C3.90946 18.5073 3.89811 18.5101 3.89045 18.512C3.88662 18.513 3.88371 18.5137 3.88175 18.5142C3.88076 18.5144 3.88002 18.5146 3.87952 18.5147C3.87927 18.5148 3.87907 18.5148 3.87894 18.5149C3.87888 18.5149 3.87882 18.5149 3.87879 18.5149C3.87875 18.5149 3.87873 18.5149 4 19C4.12127 19.4851 4.12128 19.4851 4.1213 19.4851C4.12133 19.4851 4.12137 19.485 4.12142 19.485C4.12153 19.485 4.12171 19.485 4.12194 19.4849C4.12241 19.4848 4.12311 19.4846 4.12406 19.4844C4.12594 19.4839 4.12878 19.4832 4.13253 19.4823C4.14003 19.4804 4.15121 19.4776 4.16584 19.474C4.19509 19.4667 4.23812 19.456 4.29311 19.4424C4.40308 19.4151 4.56084 19.3762 4.75175 19.3294C5.13367 19.2359 5.64773 19.1112 6.17702 18.9867C6.70694 18.862 7.24936 18.7381 7.68894 18.6455C7.90907 18.5992 8.09986 18.5615 8.24876 18.5356C8.3233 18.5226 8.38413 18.5132 8.43105 18.5071C8.48255 18.5005 8.50176 18.5 8.5 18.5V17.5ZM4 19C4.44721 19.2236 4.44723 19.2236 4.44726 19.2235C4.44728 19.2235 4.44731 19.2234 4.44734 19.2234C4.44741 19.2232 4.44749 19.223 4.4476 19.2228C4.44783 19.2224 4.44814 19.2218 4.44854 19.221C4.44934 19.2194 4.45049 19.217 4.45199 19.214C4.455 19.208 4.45937 19.1992 4.46504 19.1877C4.47637 19.1648 4.49285 19.1313 4.51374 19.0886C4.55551 19.003 4.61497 18.8801 4.68624 18.7297C4.82862 18.4291 5.01889 18.0169 5.20957 17.572C5.3997 17.1283 5.59316 16.6454 5.73997 16.205C5.88066 15.7829 6 15.3392 6 15H5C5 15.1608 4.93184 15.4671 4.79128 15.8888C4.65684 16.2921 4.4753 16.7467 4.29043 17.178C4.10611 17.6081 3.92138 18.0084 3.78251 18.3016C3.71315 18.448 3.65543 18.5673 3.61517 18.6497C3.59504 18.6909 3.57929 18.7229 3.56865 18.7444C3.56333 18.7552 3.55929 18.7633 3.55661 18.7687C3.55527 18.7714 3.55428 18.7734 3.55364 18.7747C3.55332 18.7753 3.55308 18.7758 3.55294 18.7761C3.55287 18.7762 3.55282 18.7763 3.5528 18.7764C3.55278 18.7764 3.55278 18.7764 3.55277 18.7764C3.55278 18.7764 3.55279 18.7764 4 19ZM6 15C6 14.4414 5.86276 13.7331 5.74074 13.1079C5.61113 12.4439 5.5 11.8777 5.5 11.5H4.5C4.5 11.9989 4.63887 12.6827 4.75926 13.2995C4.88724 13.9552 5 14.5586 5 15H6Z" fill="black"/>
</svg>
