<svg width="24" height="24" viewBox="0 0 24 24" fill="none" xmlns="http://www.w3.org/2000/svg">
<path d="M8.46447 15.5355C7.55964 14.6307 7 13.3807 7 12C7 9.23858 9.23858 7 12 7C14.7614 7 17 9.23858 17 12C17 13.3807 16.4404 14.6307 15.5355 15.5355M5.63604 18.364C4.00736 16.7353 3 14.4853 3 12C3 7.02944 7.02944 3 12 3C16.9706 3 21 7.02944 21 12C21 14.4853 19.9926 16.7353 18.364 18.364M13 12C13 12.5523 12.5523 13 12 13C11.4477 13 11 12.5523 11 12C11 11.4477 11.4477 11 12 11C12.5523 11 13 11.4477 13 12Z" stroke="black" stroke-linecap="round" stroke-linejoin="round"/>
</svg>
