<svg width="24" height="24" viewBox="0 0 24 24" fill="none" xmlns="http://www.w3.org/2000/svg">
<path d="M3 6H5M5 6V5C5 3.89543 5.89543 3 7 3H17C18.1046 3 19 3.89543 19 5V19C19 20.1046 18.1046 21 17 21H7C5.89543 21 5 20.1046 5 19V18M5 6V10M3 10H5M5 10V14M3 14H5M5 14V18M3 18H5M14 9C14 10.1046 13.1046 11 12 11C10.8954 11 10 10.1046 10 9C10 7.89543 10.8954 7 12 7C13.1046 7 14 7.89543 14 9ZM16 16C16 17.1046 14.2091 18 12 18C9.79086 18 8 17.1046 8 16C8 14.8954 9.79086 14 12 14C14.2091 14 16 14.8954 16 16Z" stroke="black" stroke-linecap="round" stroke-linejoin="round"/>
</svg>
