<svg width="24" height="24" viewBox="0 0 24 24" fill="none" xmlns="http://www.w3.org/2000/svg">
<path d="M8 14V20.0645M8 14L12 7L16 14M8 14C10 16 14 16 16 14M8 20.0645C9.20496 20.6633 10.5632 21 12 21M8 20.0645C5.03656 18.5918 3 15.5337 3 12M16 14C16 16.1418 16 20.0645 16 20.0645M16 14L16 20.0645M16 20.0645C18.9634 18.5918 21 15.5337 21 12M16 20.0645C14.795 20.6633 13.4368 21 12 21M21 12C21 16.9706 16.9706 21 12 21M21 12C21 7.02944 16.9706 3 12 3C7.02944 3 3 7.02944 3 12M12 21C7.02944 21 3 16.9706 3 12" stroke="black" stroke-linecap="round" stroke-linejoin="round"/>
</svg>
