<svg width="24" height="24" viewBox="0 0 24 24" fill="none" xmlns="http://www.w3.org/2000/svg">
<path d="M21 7C21 9.20914 16.9706 11 12 11C7.02944 11 3 9.20914 3 7M21 7C21 4.79086 16.9706 3 12 3C7.02944 3 3 4.79086 3 7M21 7C21 7 21 10.6569 21 13M21 7V13M3 7C3 7 3 10.6569 3 13M3 7V13M21 17C21 19.2091 16.9706 21 12 21C7.02944 21 3 19.2091 3 17M21 17C21 17 21 14 21 13M21 17V13M3 17C3 17 3 14.5621 3 13M3 17V13M3 13C3 14 7 16 12 16C17 16 21 14 21 13" stroke="black" stroke-linecap="round" stroke-linejoin="round"/>
</svg>
