<svg width="24" height="24" viewBox="0 0 24 24" fill="none" xmlns="http://www.w3.org/2000/svg">
<path d="M13 20H8M13 20H20M13 20V16H14.7427C16.5416 16 18 14.5416 18 12.7427V11.5C18 10.6716 17.3284 10 16.5 10C15.6716 10 15 10.6716 15 11.5V12.8639C15 12.9391 14.9391 13 14.8639 13H13V6.5C13 5.11929 11.8807 4 10.5 4C9.11929 4 8 5.11929 8 6.5V11H6.11539C6.05166 11 6 10.9483 6 10.8846V9.5C6 8.67157 5.32843 8 4.5 8C3.67157 8 3 8.67157 3 9.5V11C3 12.6569 4.34315 14 6 14H8V20M8 20H4M20 5C20 6.10457 19.1046 7 18 7C16.8954 7 16 6.10457 16 5C16 3.89543 16.8954 3 18 3C19.1046 3 20 3.89543 20 5Z" stroke="black" stroke-linecap="round" stroke-linejoin="round"/>
</svg>
