<svg width="24" height="24" viewBox="0 0 24 24" fill="none" xmlns="http://www.w3.org/2000/svg">
<path d="M18 14.0001V6.00002M18 14.0001L16.14 15.86C16.0469 15.9531 15.9642 16.0534 15.8938 16.1647C15.5598 16.6928 14.5302 18.3993 14.1463 19.9427C13.9849 20.5916 13.6743 21.2838 13.0163 21.4034C12.643 21.4712 12.2926 21.4477 11.9919 21.3866C11.3366 21.2535 11 20.5984 11 19.9297V16M18 14.0001C18 14.5523 18.4477 15 19 15H20C20.5523 15 21 14.5523 21 14L21 6.00002C21 5.44773 20.5523 5.00002 20 5.00002H19C18.4477 5.00002 18 5.44773 18 6.00002M18 6.00002L14.1545 4.1904C13.8881 4.06504 13.5973 4.00004 13.3029 4.00004H10.5L8.23607 4.00003C7.47853 4.00003 6.786 4.42803 6.44721 5.1056L3.33087 11.3383C3.11736 11.7653 3.06365 12.2546 3.17944 12.7178L3.62127 14.4851C3.84385 15.3754 4.64381 16 5.56154 16L7.25 16L11 16M11 16H12" stroke="black" stroke-linecap="round" stroke-linejoin="round"/>
</svg>
