<svg width="24" height="24" viewBox="0 0 24 24" fill="none" xmlns="http://www.w3.org/2000/svg">
<path d="M17 7H11C9.89543 7 9 7.89543 9 9V14.4641C9 14.7601 9.23994 15 9.53593 15V15C9.72723 15 9.8981 14.8919 10.0293 14.7526C10.2724 14.4945 10.6174 14.3333 11 14.3333M17 7V12M17 7V9M17 9H19C20.1046 9 21 9.89543 21 11V12M17 9V12M17 14.3333C16.5065 14.3333 16.0756 14.6015 15.845 15M17 14.3333C17.2429 14.3333 17.4706 14.3983 17.6667 14.5117C17.8691 14.6288 18.0379 14.7976 18.155 15M17 14.3333V12M15.845 15C15.7316 15.1961 15.6667 15.4238 15.6667 15.6667C15.6667 16.403 16.2636 17 17 17C17.7364 17 18.3333 16.403 18.3333 15.6667C18.3333 15.4238 18.2684 15.1961 18.155 15M15.845 15H12.248C12.1904 15 12.1378 14.9689 12.1056 14.9212V14.9212M11 14.3333C10.2636 14.3333 9.66667 14.9303 9.66667 15.6667C9.66667 16.403 10.2636 17 11 17C11.7364 17 12.3333 16.403 12.3333 15.6667C12.3333 15.3905 12.2494 15.134 12.1056 14.9212M11 14.3333C11.4602 14.3333 11.866 14.5665 12.1056 14.9212M18.155 15H19C20.1046 15 21 14.1046 21 13V12M21 12H17M5 12H3M5 16H3M5 8H3" stroke="black" stroke-linecap="round" stroke-linejoin="round"/>
</svg>
