<svg width="24" height="24" viewBox="0 0 24 24" fill="none" xmlns="http://www.w3.org/2000/svg">
<path d="M8.12602 13C8.57006 14.7252 10.1362 16 12 16C13.1065 16 14.1081 15.5507 14.8322 14.8246M8.12602 13C8.04375 12.6804 8 12.3453 8 12C8 11.6547 8.04375 11.3196 8.12602 11M8.12602 13H7M8.12602 13H11M8.12602 11C8.57006 9.27477 10.1362 8 12 8C13.0896 8 14.0775 8.43569 14.7989 9.14237M8.12602 11H7M8.12602 11H11M21 12C21 16.9706 16.9706 21 12 21C7.02944 21 3 16.9706 3 12C3 7.02944 7.02944 3 12 3C16.9706 3 21 7.02944 21 12Z" stroke="black" stroke-linecap="round" stroke-linejoin="round"/>
</svg>
