<svg width="24" height="24" viewBox="0 0 24 24" fill="none" xmlns="http://www.w3.org/2000/svg">
<path d="M15 15V11M15 15L20 10M15 15H11M15 15L10 20M15 15H19M15 15V19M9 9H13M9 9L14 4M9 9L4 14M9 9V13M9 9V5M9 9H5M13 9H15V11M13 9L18 4M18 4H20V6M18 4H14M15 11L20 6M20 6V10M20 10V14M14 4H10M4 14V18M4 14V10M9 13V15H11M9 13L4 18M4 18V20H6M6 20L11 15M6 20H10M10 20H14M20 14V15H19M20 14L19 15M10 4H9V5M10 4L9 5M5 9H4V10M5 9L4 10M15 19V20H14M15 19L14 20" stroke="black" stroke-linecap="round" stroke-linejoin="round"/>
</svg>
