<svg width="24" height="24" viewBox="0 0 24 24" fill="none" xmlns="http://www.w3.org/2000/svg">
<path d="M15 4H18C19.1046 4 20 4.89543 20 6V18C20 19.1046 19.1046 20 18 20H15M15 4H9M15 4C15 4 16 8 16 12C16 16 15 20 15 20M9 4H6C4.89543 4 4 4.89543 4 6V18C4 19.1046 4.89543 20 6 20H9M9 4C9 4 8 8 8 12C8 16 9 20 9 20M9 20H15M4 15C4 15 4.93735 15.2321 6.29409 15.4652C7.81404 15.7262 9.90702 16 12 16C14.093 16 16.186 15.7262 17.7059 15.4652C19.0626 15.2321 20 15 20 15M4 9L6.29409 8.53484C7.81404 8.27379 9.90702 8 12 8C14.093 8 16.186 8.27379 17.7059 8.53484L20 9" stroke="black" stroke-linecap="round" stroke-linejoin="round"/>
</svg>
