<svg width="24" height="24" viewBox="0 0 24 24" fill="none" xmlns="http://www.w3.org/2000/svg">
<path d="M12 8L5.58579 14.4142C5.21071 14.7893 5 15.298 5 15.8284V16.7627C5 16.9199 4.97466 17.076 4.92495 17.2251V17.2251C4.54385 18.3684 5.63155 19.4561 6.77485 19.075V19.075C6.92398 19.0253 7.08014 19 7.23733 19H8.17157C8.70201 19 9.21071 18.7893 9.58579 18.4142L16 12M12 8L16 12M12 8L11.25 7.25C10.5596 6.55964 10.5596 5.44036 11.25 4.75V4.75C11.9404 4.05964 13.0596 4.05964 13.75 4.75L13.798 4.79801C14.4763 5.47626 15.5624 5.51797 16.2906 4.89373L17.4171 3.92818C18.0575 3.37926 18.9849 3.32326 19.6867 3.79113V3.79113C19.8935 3.92901 20.071 4.10648 20.2089 4.3133V4.3133C20.6767 5.01511 20.6207 5.94247 20.0718 6.58288L19.1063 7.70936C18.482 8.43763 18.5237 9.52374 19.202 10.202L19.25 10.25C19.9404 10.9404 19.9404 12.0596 19.25 12.75V12.75C18.5596 13.4404 17.4404 13.4404 16.75 12.75L16 12" stroke="black" stroke-linecap="round" stroke-linejoin="round"/>
</svg>
