<svg width="24" height="24" viewBox="0 0 24 24" fill="none" xmlns="http://www.w3.org/2000/svg">
<path d="M5 13V13C3.89543 13 3 12.1046 3 11V10C3 8.89543 3.89543 8 5 8H12M5 13V19C5 20.1046 5.89543 21 7 21H12M5 13H19M19 13V13C20.1046 13 21 12.1046 21 11V10C21 8.89543 20.1046 8 19 8H12M19 13V19C19 20.1046 18.1046 21 17 21H12M12 21V8M12 8V5.5M12 5.5C12 4.11929 10.8807 3 9.5 3C8.11929 3 7 4.11929 7 5.5C7 6.88071 8.11929 8 9.5 8M12 5.5C12 4.11929 13.1193 3 14.5 3C15.8807 3 17 4.11929 17 5.5C17 6.88071 15.8807 8 14.5 8" stroke="black" stroke-linecap="round" stroke-linejoin="round"/>
</svg>
