<svg width="24" height="24" viewBox="0 0 24 24" fill="none" xmlns="http://www.w3.org/2000/svg">
<path d="M7 18V6C7 4.89543 6.10457 4 5 4C3.89543 4 3 4.89543 3 6V18C3 19.1046 3.89543 20 5 20C6.10457 20 7 19.1046 7 18Z" stroke="black" stroke-linecap="round" stroke-linejoin="round"/>
<path d="M14 18V10C14 8.89543 13.1046 8 12 8C10.8954 8 10 8.89543 10 10V18C10 19.1046 10.8954 20 12 20C13.1046 20 14 19.1046 14 18Z" stroke="black" stroke-linecap="round" stroke-linejoin="round"/>
<path d="M21 18V14C21 12.8954 20.1046 12 19 12C17.8954 12 17 12.8954 17 14V18C17 19.1046 17.8954 20 19 20C20.1046 20 21 19.1046 21 18Z" stroke="black" stroke-linecap="round" stroke-linejoin="round"/>
</svg>
