<svg width="24" height="24" viewBox="0 0 24 24" fill="none" xmlns="http://www.w3.org/2000/svg">
<path d="M17 6H19C19.5522 6 20 6.44772 20 7V12L18.4144 17.5494C18.1691 18.408 17.3843 19 16.4914 19H8.99996C7.99996 19 5.99996 16 5.99996 16C5.99996 16 5.63096 12.679 4.89296 10.5667C4.63243 9.82101 4.96968 8.63636 5.70928 8.359L6.64884 8.00667C7.30259 7.76152 7.99996 8.24479 7.99996 8.943M17 6V8.5M17 6V5C17 4.44772 16.5522 4 16 4H15C14.4477 4 14 4.44772 14 5M14 5V8.5M14 5V4C14 3.44772 13.5522 3 13 3H12C11.4477 3 11 3.44772 11 4M11 4V8.5M11 4H8.99996C8.44767 4 7.99996 4.44772 7.99996 5V8.943M7.99996 8.943V12" stroke="black" stroke-linecap="round" stroke-linejoin="round"/>
</svg>
