<svg width="24" height="24" viewBox="0 0 24 24" fill="none" xmlns="http://www.w3.org/2000/svg">
<path d="M16.9999 6H18.9999C19.5522 6 19.9999 6.44772 19.9999 7V14L18.4144 19.5494C18.1691 20.408 17.3843 21 16.4913 21H8.99994C7.99994 21 5.99994 18 5.99994 18C5.99994 18 4.85623 13.8826 3.70573 11.901C3.40018 11.3747 3.38493 10.615 3.81524 10.1847L4.18464 9.8153C4.61495 9.38499 5.32662 9.43557 5.69175 9.92241L7.99994 13V5C7.99994 4.44772 8.44766 4 8.99994 4H10.9999M16.9999 6V12M16.9999 6V5C16.9999 4.44772 16.5522 4 15.9999 4H14.9999C14.4477 4 13.9999 4.44772 13.9999 5M13.9999 5V12M13.9999 5V4C13.9999 3.44772 13.5522 3 12.9999 3H11.9999C11.4477 3 10.9999 3.44772 10.9999 4M10.9999 4V12" stroke="black" stroke-linecap="round" stroke-linejoin="round"/>
</svg>
