<svg width="24" height="24" viewBox="0 0 24 24" fill="none" xmlns="http://www.w3.org/2000/svg">
<path d="M11.9979 8C15.518 7.9984 17.9546 8.79958 18.7701 9.11167C18.9709 9.18852 19.1476 9.31149 19.2998 9.46285L20.4663 10.6231C20.8074 10.9624 20.9992 11.4227 20.9994 11.9027L21 13.1826C21.0005 14.1823 20.1868 14.993 19.1826 14.9935L17.3487 14.9943C16.482 14.9947 15.7355 14.386 15.5651 13.5401L15.4212 12.8255C15.293 12.1886 14.8324 11.6657 14.2004 11.5042C13.5408 11.3357 12.68 11.1568 11.9994 11.1571C11.3187 11.1574 10.458 11.3371 9.79867 11.5062C9.16683 11.6683 8.70669 12.1916 8.57902 12.8286L8.43577 13.5433C8.26618 14.3894 7.52024 14.9988 6.65353 14.9992L4.81963 15C3.81546 15.0005 3.00105 14.1904 3.00059 13.1908L3 11.9109C2.99978 11.4308 3.19113 10.9704 3.53196 10.6308L4.69742 9.46948C4.84946 9.31799 5.02607 9.19486 5.22678 9.11783C6.04198 8.805 8.47785 8.0016 11.9979 8Z" stroke="black"/>
</svg>
