<svg width="24" height="24" viewBox="0 0 24 24" fill="none" xmlns="http://www.w3.org/2000/svg">
<path d="M5 5L19 19M12 5C6.098 5 3.91159 9.33484 3.24782 11.1821C3.05675 11.7138 3.05675 12.2862 3.24782 12.8179C3.91159 14.6652 6.098 19 12 19C17.902 19 20.0884 14.6652 20.7522 12.8179C20.9433 12.2862 20.9433 11.7138 20.7522 11.1821C20.0884 9.33485 17.902 5 12 5ZM12 15C13.6569 15 15 13.6569 15 12C15 10.3431 13.6569 9 12 9C10.3431 9 9 10.3431 9 12C9 13.6569 10.3431 15 12 15Z" stroke="black" stroke-linecap="round" stroke-linejoin="round"/>
</svg>
