<svg width="24" height="24" viewBox="0 0 24 24" fill="none" xmlns="http://www.w3.org/2000/svg">
<path d="M11 15L9 17L8 15L9.5 13.5M11 15L9.5 13.5M11 15L11.5 15.5C13 14 15.5 12.5 17.5 14.5M9.5 13.5C9 13 9 13 9 13M9.5 13.5L9 13M17.5 14.5L20.9504 11.0496M17.5 14.5L14 11L10.5 7.5M10.5 7.5C11.8375 8.83751 10.3922 11.2318 9 13M10.5 7.5L14.6144 3.38561M14.6144 3.38561C13.787 3.13484 12.9093 3 12 3C7.02944 3 3 7.02944 3 12C3 16.9706 7.02944 21 12 21C16.9706 21 21 16.9706 21 12C21 11.679 20.9832 11.3619 20.9504 11.0496M14.6144 3.38561C18.0178 4.41716 20.5685 7.41045 20.9504 11.0496" stroke="black" stroke-linecap="round" stroke-linejoin="round"/>
</svg>
