<svg width="24" height="24" viewBox="0 0 24 24" fill="none" xmlns="http://www.w3.org/2000/svg">
<path d="M13 10H11M13 10H14C14 10 14 15 16 16M13 10V9V7L11 8V10M11 10H10C10 10 10 15 8 16M16 16C17 16 17 16 17 16M16 16H8M16 16H17M8 16C7 16 7 16 7 16M8 16H7M7 16V19.4845M7 19.4845C8.4301 20.4417 10.1499 21 12 21C13.8501 21 15.5699 20.4417 17 19.4845M7 19.4845C4.58803 17.8699 3 15.1204 3 12C3 7.02944 7.02944 3 12 3C16.9706 3 21 7.02944 21 12C21 15.1204 19.412 17.8699 17 19.4845M17 16V19.4845" stroke="black" stroke-linecap="round" stroke-linejoin="round"/>
</svg>
