<svg width="24" height="24" viewBox="0 0 24 24" fill="none" xmlns="http://www.w3.org/2000/svg">
<path d="M14 18V19C14 20.1046 13.1046 21 12 21V21C10.8954 21 10 20.1046 10 19V18M14 18C14 18 14.2248 17.3006 14.6667 15.9444C15.0542 14.755 16 14.7266 16 12.3333C16 9.9401 14.2091 8 12 8C9.79086 8 8 9.9401 8 12.3333C8 14.7266 8.94582 14.755 9.33333 15.9444C9.77516 17.3006 10 18 10 18M14 18H12H10M4 11H3M6.5 6.5L5.5 5.5M12 3V4M17.5 6.5L18.5 5.5M21 11H20" stroke="black" stroke-linecap="round" stroke-linejoin="round"/>
</svg>
