<svg width="24" height="24" viewBox="0 0 24 24" fill="none" xmlns="http://www.w3.org/2000/svg">
<path d="M19 12H16.5C15.6716 12 15 12.6716 15 13.5V13.5C15 14.3284 14.3284 15 13.5 15H10.5C9.67157 15 9 14.3284 9 13.5V13.5C9 12.6716 8.32843 12 7.5 12H5M19 12V12C19.5523 12 20 12.4477 20 13V18C20 19.1046 19.1046 20 18 20H6C4.89543 20 4 19.1046 4 18V13C4 12.4477 4.44772 12 5 12V12M19 12V5C19 3.89543 18.1046 3 17 3H7C5.89543 3 5 3.89543 5 5V12" stroke="black" stroke-linecap="round" stroke-linejoin="round"/>
</svg>
