<svg width="24" height="24" viewBox="0 0 24 24" fill="none" xmlns="http://www.w3.org/2000/svg">
<path d="M4 20H20M10 9L6.80369 8.20092C6.2891 8.07227 5.84668 7.74447 5.57378 7.28963L4.67124 5.7854C4.56074 5.60123 4.388 5.46267 4.18425 5.39475V5.39475C3.60165 5.20055 3 5.63419 3 6.24831V8.17157C3 8.70201 3.21071 9.21071 3.58579 9.58579L3.70517 9.70517C3.89963 9.89963 4.13211 10.0519 4.38808 10.1525L17.6475 15.3615C17.8804 15.453 18.1285 15.5 18.3788 15.5H19.8258C20.6801 15.5 21.141 14.4979 20.585 13.8492L19.3347 12.3905C19.1151 12.1343 18.8343 11.9379 18.5184 11.8194L15 10.5L12.1669 4.36154C12.0597 4.12938 11.8677 3.94708 11.6303 3.85212L11.0023 3.60092C10.3121 3.32484 9.57264 3.87163 9.63437 4.61244L10 9Z" stroke="black" stroke-linecap="round" stroke-linejoin="round"/>
</svg>
