<svg width="24" height="24" viewBox="0 0 24 24" fill="none" xmlns="http://www.w3.org/2000/svg">
<path d="M6 9.99998V18M6 9.99998L7.85995 8.14008C7.95309 8.04694 8.03578 7.94662 8.10618 7.8353C8.44017 7.3072 9.46981 5.60075 9.85371 4.05736C10.0151 3.40844 10.3257 2.71625 10.9837 2.59666C11.357 2.5288 11.7074 2.55233 12.0081 2.61342C12.6634 2.74654 13 3.40165 13 4.07033V8.00003M6 9.99998C6 9.4477 5.55228 9.00003 5 9.00003H4C3.44772 9.00003 3 9.44774 3 10V18C3 18.5523 3.44772 19 4 19H5C5.55228 19 6 18.5523 6 18M6 18L9.84548 19.8097C10.1119 19.935 10.4027 20 10.6971 20H13.5L15.7639 20C16.5215 20 17.214 19.572 17.5528 18.8944L20.6691 12.6618C20.8826 12.2348 20.9364 11.7454 20.8206 11.2823L20.3787 9.51495C20.1561 8.62462 19.3562 8.00002 18.4385 8.00002L16.75 8L13 8.00003M13 8.00003H12" stroke="black" stroke-linecap="round" stroke-linejoin="round"/>
</svg>
