<svg width="24" height="24" viewBox="0 0 24 24" fill="none" xmlns="http://www.w3.org/2000/svg">
<path d="M8.37192 8.72069C8.75218 8.4486 9 8.00324 9 7.5C9 7.44401 8.99693 7.38874 8.99096 7.33434M8.37192 8.72069C8.12621 8.89652 7.82519 9 7.5 9C6.67157 9 6 8.32843 6 7.5C6 6.67157 6.67157 6 7.5 6C8.27244 6 8.90851 6.58386 8.99096 7.33434M8.37192 8.72069L15.6281 15.2793M8.99096 7.33434L17.009 5.66566M17.009 5.66566C17.0915 6.41614 17.7276 7 18.5 7C19.3284 7 20 6.32843 20 5.5C20 4.67157 19.3284 4 18.5 4C17.6716 4 17 4.67157 17 5.5C17 5.55599 17.0031 5.61126 17.009 5.66566ZM15.6281 15.2793C15.2478 15.5514 15 15.9968 15 16.5C15 16.5658 15.0042 16.6305 15.0124 16.694M15.6281 15.2793C15.8738 15.1035 16.1748 15 16.5 15C17.3284 15 18 15.6716 18 16.5C18 17.3284 17.3284 18 16.5 18C15.7373 18 15.1076 17.4308 15.0124 16.694M15.0124 16.694L6.98757 18.306M6.98757 18.306C6.89241 17.5692 6.26268 17 5.5 17C4.67157 17 4 17.6716 4 18.5C4 19.3284 4.67157 20 5.5 20C6.32843 20 7 19.3284 7 18.5C7 18.4342 6.99577 18.3695 6.98757 18.306Z" stroke="black" stroke-linecap="round" stroke-linejoin="round"/>
</svg>
