<svg width="24" height="24" viewBox="0 0 24 24" fill="none" xmlns="http://www.w3.org/2000/svg">
<path d="M13 8L5.41421 15.5858C4.63317 16.3668 4.63317 17.6332 5.41421 18.4142L5.58579 18.5858C6.36684 19.3668 7.63316 19.3668 8.41421 18.5858L16 11M13 8L15.5858 5.41421C16.3668 4.63316 17.6332 4.63316 18.4142 5.41421L18.5858 5.58579C19.3668 6.36683 19.3668 7.63317 18.5858 8.41421L16 11M13 8L16 11M8 3V6M6.5 4.5H9.5M18 15V17M18 17V19M18 17H16M18 17H20M4 9V11M3 10H5" stroke="black" stroke-linecap="round" stroke-linejoin="round"/>
</svg>
