<svg width="24" height="24" viewBox="0 0 24 24" fill="none" xmlns="http://www.w3.org/2000/svg">
<path d="M12 14L9.5 16.5L8 14L10 12M12 14L10 12M12 14L13 15M10 12L9 11M12 8L14 10L16 12M12 8L10.5 6.5L13.8166 3.18342M12 8L9 11M9 11L13 15M13 15L16 12M16 12L17.5 13.5L20.8166 10.1834M20.8166 10.1834C20.9368 10.7702 21 11.3777 21 12C21 16.9706 16.9706 21 12 21C7.02944 21 3 16.9706 3 12C3 7.02944 7.02944 3 12 3C12.6223 3 13.2298 3.06316 13.8166 3.18342M20.8166 10.1834C20.0966 6.67038 17.3296 3.90344 13.8166 3.18342" stroke="black" stroke-linecap="round" stroke-linejoin="round"/>
</svg>
