<svg width="24" height="24" viewBox="0 0 24 24" fill="none" xmlns="http://www.w3.org/2000/svg">
<path d="M15 4H18C19.1046 4 20 4.89543 20 6V9M15 4H10M15 4C15 4 14 8 14 12C14 16 15 20 15 20M10 4H6C4.89543 4 4 4.89543 4 6V9M10 4C10 4 9 8 9 12C9 16 10 20 10 20M10 20H6C4.89543 20 4 19.1046 4 18V9M10 20H15M15 20H18C19.1046 20 20 19.1046 20 18V9M4 9C4 9 7 10 9 10C11 10 12 8 14 8C16 8 20 9 20 9M4 15C4 15 7 16 9 16C11 16 12 14 14 14C16 14 20 15 20 15" stroke="black" stroke-linecap="round" stroke-linejoin="round"/>
</svg>
