<svg width="24" height="24" viewBox="0 0 24 24" fill="none" xmlns="http://www.w3.org/2000/svg">
<path d="M14 7C14 7.90455 18.9092 7.99089 19.8464 16.8804C20.0389 18.7058 18.7531 20.3351 16.9389 20.6134C15.4529 20.8413 13.7736 21 12 21C10.2264 21 8.54708 20.8413 7.06111 20.6134C5.24686 20.3351 3.96112 18.7058 4.15356 16.8804C5.09075 7.99089 10 7.90455 10 7M14 7H10M14 7C16 6 16 3 16 3H8C8 3 8 6 10 7M14 7H17M10 7H7M12 14H13C13.8284 14 14.5 14.6716 14.5 15.5V15.5C14.5 16.3284 13.8284 17 13 17H12M12 14V11M12 14V17M12 14H11C10.1716 14 9.5 13.3284 9.5 12.5V12.5C9.5 11.6716 10.1716 11 11 11H12M14.5 11H12M12 11V10M12 17H9.5M12 17V18" stroke="black" stroke-linecap="round" stroke-linejoin="round"/>
</svg>
