<svg width="24" height="24" viewBox="0 0 24 24" fill="none" xmlns="http://www.w3.org/2000/svg">
<path d="M11.1165 9.07779C11.0402 8.73066 11 8.37001 11 7.99998C11 5.55152 12.7599 3.5141 15.0838 3.08374C15.0288 3.38077 15 3.68702 15 3.99998C15 6.7614 17.2386 8.99998 20 8.99998C20.313 8.99998 20.6192 8.97123 20.9162 8.91622C20.5389 10.9539 18.9258 12.558 16.8835 12.9222M11.1165 9.07779C9.07991 9.44091 7.47023 11.037 7.08698 13.0665C4.76155 13.4098 3 15.0403 3 17C3 19.2091 5.23858 21 8 21H12H16C18.7614 21 21 19.2091 21 17C21 15.0403 19.2385 13.4098 16.913 13.0665C16.9039 13.0181 16.8941 12.97 16.8835 12.9222M11.1165 9.07779C11.4033 9.02665 11.6985 8.99997 12 8.99997C14.3914 8.99997 16.3907 10.6788 16.8835 12.9222" stroke="black" stroke-linecap="round" stroke-linejoin="round"/>
</svg>
