<svg width="24" height="24" viewBox="0 0 24 24" fill="none" xmlns="http://www.w3.org/2000/svg">
<path d="M6 16L7 14.5M15 8L13 14L8.52108 14.3732M15 8L18 16M15 8H12L9 10H5L5.44444 11M15 8H17V6H14.3333M15 8L14.3333 6M7 14.5L8.52108 14.3732M7 14.5L6.3419 13.0193M12 4H14V5L14.3333 6M5.44444 11H3M5.44444 11L6.3419 13.0193M8.52108 14.3732C8.8241 14.8419 9 15.4004 9 16C9 17.6569 7.65685 19 6 19C4.34315 19 3 17.6569 3 16C3 14.3431 4.34315 13 6 13C6.11561 13 6.22969 13.0065 6.3419 13.0193M21 16C21 17.6569 19.6569 19 18 19C16.3431 19 15 17.6569 15 16C15 14.3431 16.3431 13 18 13C19.6569 13 21 14.3431 21 16Z" stroke="black" stroke-linecap="round" stroke-linejoin="round"/>
</svg>
