<svg width="24" height="24" viewBox="0 0 24 24" fill="none" xmlns="http://www.w3.org/2000/svg">
<path d="M4 4L20 20M16 12C16 14.2091 14.2091 16 12 16C9.79086 16 8 14.2091 8 12C8 9.79086 9.79086 8 12 8C14.2091 8 16 9.79086 16 12ZM16.4142 4.41421L15.5858 3.58579C15.2107 3.21071 14.702 3 14.1716 3H9.82843C9.29799 3 8.78929 3.21071 8.41421 3.58579L7.58579 4.41421C7.21071 4.78929 6.70201 5 6.17157 5H5C3.89543 5 3 5.89543 3 7V17C3 18.1046 3.89543 19 5 19H19C20.1046 19 21 18.1046 21 17V7C21 5.89543 20.1046 5 19 5H17.8284C17.298 5 16.7893 4.78929 16.4142 4.41421Z" stroke="black" stroke-linecap="round" stroke-linejoin="round"/>
</svg>
