<svg width="24" height="24" viewBox="0 0 24 24" fill="none" xmlns="http://www.w3.org/2000/svg">
<path d="M15.1716 3H8.82843C8.29799 3 7.78929 3.21071 7.41421 3.58579L3.58579 7.41421C3.21071 7.78929 3 8.29799 3 8.82843V15.1716C3 15.702 3.21071 16.2107 3.58579 16.5858L7.41421 20.4142C7.78929 20.7893 8.29799 21 8.82843 21H15.1716C15.702 21 16.2107 20.7893 16.5858 20.4142L20.4142 16.5858C20.7893 16.2107 21 15.702 21 15.1716V8.82843C21 8.29799 20.7893 7.78929 20.4142 7.41421L16.5858 3.58579C16.2107 3.21071 15.702 3 15.1716 3Z" stroke="black" stroke-linecap="round" stroke-linejoin="round"/>
</svg>
