<svg width="24" height="24" viewBox="0 0 24 24" fill="none" xmlns="http://www.w3.org/2000/svg">
<path d="M8 12H10M10 12V5H14M10 12H14M10 12V19H14M4 11H4.00898M18 3H18.009M18 10H18.009M18 18H18.009M3 14C3 13.4477 3.44772 13 4 13C4.55228 13 5 13.4477 5 14H3ZM17 6C17 5.44772 17.4477 5 18 5C18.5523 5 19 5.44772 19 6H17ZM17 13C17 12.4477 17.4477 12 18 12C18.5523 12 19 12.4477 19 13H17ZM17 21C17 20.4477 17.4477 20 18 20C18.5523 20 19 20.4477 19 21H17Z" stroke="black" stroke-linecap="round" stroke-linejoin="round"/>
</svg>
