<svg width="24" height="24" viewBox="0 0 24 24" fill="none" xmlns="http://www.w3.org/2000/svg">
<path d="M3 14L9 20L15 14M3 14H15M3 14L7.43934 9.56066M15 14L18 11L15 8L12 5L9.56066 7.43934M9.56066 7.43934C9.28921 7.16789 8.91421 7 8.5 7C8.06373 7 7.67096 7.18625 7.39687 7.48357M9.56066 7.43934C9.83211 7.71079 10 8.08579 10 8.5C10 9.32843 9.32843 10 8.5 10C8.08579 10 7.71079 9.83211 7.43934 9.56066M7.43934 9.56066C7.16789 9.28921 7 8.91421 7 8.5C7 8.10784 7.15049 7.75083 7.39687 7.48357M7.39687 7.48357L4 4M19 14C19 14 21 17 21 18C21 19 20 20 19 20C18 20 17 19 17 18C17 16.8 19 14 19 14Z" stroke="black" stroke-linecap="round" stroke-linejoin="round"/>
</svg>
