<svg width="24" height="24" viewBox="0 0 24 24" fill="none" xmlns="http://www.w3.org/2000/svg">
<path d="M17 5V5C17 6.10457 16.1046 7 15 7H6C4.89543 7 4 6.10457 4 5V5C4 3.89543 4.89543 3 6 3H15C16.1046 3 17 3.89543 17 5V5ZM17 5H18C19.1046 5 20 5.89543 20 7V8C20 9.10457 19.1046 10 18 10H13C11.8954 10 11 10.8954 11 12V13M11 13V13C9.89543 13 9 13.8954 9 15V19C9 20.1046 9.89543 21 11 21V21C12.1046 21 13 20.1046 13 19V15C13 13.8954 12.1046 13 11 13V13Z" stroke="black" stroke-linecap="round" stroke-linejoin="round"/>
</svg>
