<svg width="24" height="24" viewBox="0 0 24 24" fill="none" xmlns="http://www.w3.org/2000/svg">
<path d="M12 21C13.4368 21 14.795 20.6633 16 20.0645M12 21C10.5632 21 9.20496 20.6633 8 20.0645M12 21C12 21 12 16.7337 12 14M16 12V20.0645M16 12L13.6 9M16 12C16 12 15 14 12 14M16 20.0645C18.9634 18.5918 21 15.5337 21 12C21 7.02944 16.9706 3 12 3C7.02944 3 3 7.02944 3 12C3 15.5337 5.03656 18.5918 8 20.0645M8 12L8 20.0645M8 12L10.4 9M8 12C8 12 9 14 12 14M10.4 9L12 7L13.6 9M10.4 9H13.6" stroke="black" stroke-linecap="round" stroke-linejoin="round"/>
</svg>
