<svg width="24" height="24" viewBox="0 0 24 24" fill="none" xmlns="http://www.w3.org/2000/svg">
<path d="M16 14L20.6144 9.38561M16 14L12 15M16 14C16 14 16 12 14 10M10 8L14.6144 3.38561M10 8L9 12M10 8C10 8 12 8 14 10M14.6144 3.38561C13.787 3.13484 12.9093 3 12 3C7.02944 3 3 7.02944 3 12C3 16.9706 7.02944 21 12 21C16.9706 21 21 16.9706 21 12C21 11.0907 20.8652 10.213 20.6144 9.38561M14.6144 3.38561C16.0485 3.82026 17.3311 4.60322 18.364 5.63604M20.6144 9.38561C20.1797 7.95152 19.3968 6.66885 18.364 5.63604M9 12L8 16L12 15M9 12C9 12 10 12 11 13C12 14 12 15 12 15M14 10C15.3137 8.68629 18.364 5.63604 18.364 5.63604" stroke="black" stroke-linecap="round" stroke-linejoin="round"/>
</svg>
