<svg width="24" height="24" viewBox="0 0 24 24" fill="none" xmlns="http://www.w3.org/2000/svg">
<path d="M11 18L9.58579 19.4142C9.21071 19.7893 8.70201 20 8.17157 20H6.5M11 18L18 11M11 18L6 13M6 13L4.58579 14.4142C4.21071 14.7893 4 15.298 4 15.8284V17.5M6 13L13 6M13 6L14.5858 4.41421C15.3668 3.63316 16.6332 3.63316 17.4142 4.41421L19.5858 6.58579C20.3668 7.36683 20.3668 8.63317 19.5858 9.41421L18 11M13 6L18 11M6.5 20H4V17.5M6.5 20L4 17.5" stroke="black" stroke-linecap="round" stroke-linejoin="round"/>
</svg>
