<svg width="24" height="24" viewBox="0 0 24 24" fill="none" xmlns="http://www.w3.org/2000/svg">
<path d="M13 14L10 11M13 14L10.5 15H9V13.5L10 11M13 14L13.5 14.5M10 11L9.5 10.5M9.5 10.5L13.5 14.5M9.5 10.5L11 6L13.8166 3.18342M13.5 14.5L18 13L20.8166 10.1834M20.8166 10.1834C20.9368 10.7702 21 11.3777 21 12C21 16.9706 16.9706 21 12 21C7.02944 21 3 16.9706 3 12C3 7.02944 7.02944 3 12 3C12.6223 3 13.2298 3.06316 13.8166 3.18342M20.8166 10.1834C20.0966 6.67038 17.3296 3.90344 13.8166 3.18342" stroke="black" stroke-linecap="round" stroke-linejoin="round"/>
</svg>
