<svg width="24" height="24" viewBox="0 0 24 24" fill="none" xmlns="http://www.w3.org/2000/svg">
<path d="M13.042 3.36133L12.9161 3.27736C12.6448 3.09651 12.3261 3 12 3C11.674 3 11.3553 3.0965 11.084 3.27733L10.958 3.3613C10.3595 3.76032 9.99996 4.4321 9.99997 5.15147L10 9L4.4324 10.8559C4.15556 10.9482 3.92671 11.1466 3.79621 11.4076V11.4076C3.43042 12.1392 3.96241 13 4.78034 13L9.99999 13L9.99999 16.5631C9.99999 17.1529 9.72235 17.7083 9.25056 18.0622L8.8125 18.3909C8.34107 18.7446 8.19032 19.3849 8.45446 19.9118V19.9118C8.75586 20.513 9.48731 20.7564 10.0888 20.4556L11.1055 19.9472C11.6686 19.6657 12.3314 19.6657 12.8944 19.9472L13.9098 20.4549C14.5119 20.7559 15.244 20.5119 15.5451 19.9098V19.9098C15.8085 19.3829 15.6575 18.7431 15.1862 18.3896L14.7493 18.0619C14.2776 17.7082 14 17.153 14 16.5633V13L19.2082 13C20.0214 13 20.5425 12.1349 20.1623 11.4161V11.4161C20.0338 11.1731 19.8174 10.9883 19.5573 10.8994L14 9V5.15139C14 4.43206 13.6405 3.76033 13.042 3.36133Z" stroke="black" stroke-linecap="round" stroke-linejoin="round"/>
</svg>
