<svg width="24" height="24" viewBox="0 0 24 24" fill="none" xmlns="http://www.w3.org/2000/svg">
<path fill-rule="evenodd" clip-rule="evenodd" d="M19 10C19 12.7645 15.4207 17.2 13.381 19.5031C12.6388 20.3412 11.3612 20.3412 10.619 19.5031C8.57932 17.2 5 12.7645 5 10C5 6.13401 8.13401 3 12 3C15.866 3 19 6.13401 19 10ZM12 13C13.6569 13 15 11.6569 15 10C15 8.34315 13.6569 7 12 7C10.3431 7 9 8.34315 9 10C9 11.6569 10.3431 13 12 13Z" stroke="black" stroke-linecap="round" stroke-linejoin="round"/>
</svg>
