<svg width="24" height="24" viewBox="0 0 24 24" fill="none" xmlns="http://www.w3.org/2000/svg">
<path d="M6 16.6366C4.15875 17.0943 3 17.7596 3 18.5C3 19.8807 7.02944 21 12 21C16.9706 21 21 19.8807 21 18.5C21 17.7596 19.8412 17.0943 18 16.6366M17.5 8.83333C17.5 10.9894 15.0366 14.3652 13.4071 16.3625C12.6701 17.2658 11.3299 17.2658 10.5929 16.3625C8.96336 14.3652 6.5 10.9894 6.5 8.83333C6.5 5.61167 8.96243 3 12 3C15.0376 3 17.5 5.61167 17.5 8.83333ZM13.5 8.5C13.5 9.32843 12.8284 10 12 10C11.1716 10 10.5 9.32843 10.5 8.5C10.5 7.67157 11.1716 7 12 7C12.8284 7 13.5 7.67157 13.5 8.5Z" stroke="black" stroke-linecap="round" stroke-linejoin="round"/>
</svg>
