<svg width="24" height="24" viewBox="0 0 24 24" fill="none" xmlns="http://www.w3.org/2000/svg">
<path d="M4 4L9.12854 9.12854M20 20L12.8715 12.8715M12.8715 12.8715L9.12854 9.12854M12.8715 12.8715C14.1033 12.4981 15 11.3538 15 10C15 8.34315 13.6569 7 12 7C10.6462 7 9.5019 7.89669 9.12854 9.12854M12.8715 12.8715C12.5957 12.9551 12.3031 13 12 13C10.3431 13 9 11.6569 9 10C9 9.69691 9.04495 9.40432 9.12854 9.12854M19 10C19 12.7645 15.4207 17.2 13.381 19.5031C12.6388 20.3412 11.3612 20.3412 10.619 19.5031C8.57932 17.2 5 12.7645 5 10C5 6.13401 8.13401 3 12 3C15.866 3 19 6.13401 19 10Z" stroke="black" stroke-linecap="round" stroke-linejoin="round"/>
</svg>
