<svg width="24" height="24" viewBox="0 0 24 24" fill="none" xmlns="http://www.w3.org/2000/svg">
<path d="M15 4.5C15 5.32843 13.6569 6 12 6C10.3431 6 9 5.32843 9 4.5C9 3.67157 10.3431 3 12 3C13.6569 3 15 3.67157 15 4.5Z" stroke="black" stroke-linejoin="round"/>
<path d="M19.701 10.9462C18.9835 11.3604 17.7304 10.533 16.9019 9.09808C16.0735 7.6632 15.9835 6.16421 16.701 5.75C17.4184 5.33579 18.6716 6.1632 19.5 7.59808C20.3284 9.03295 20.4184 10.5319 19.701 10.9462Z" stroke="black" stroke-linejoin="round"/>
<path d="M7.29904 5.75001C8.01648 6.16423 7.92651 7.66321 7.09808 9.09809C6.26965 10.533 5.01648 11.3604 4.29904 10.9462C3.5816 10.532 3.67158 9.03297 4.5 7.59809C5.32843 6.16321 6.5816 5.3358 7.29904 5.75001Z" stroke="black" stroke-linejoin="round"/>
<path d="M7.29911 17.9462C6.58167 18.3604 5.3285 17.533 4.50007 16.0981C3.67164 14.6632 3.58167 13.1642 4.29911 12.75C5.01655 12.3358 6.26972 13.1632 7.09814 14.5981C7.92657 16.033 8.01655 17.5319 7.29911 17.9462Z" stroke="black" stroke-linejoin="round"/>
<path d="M15 19.5C15 20.3284 13.6569 21 12 21C10.3431 21 9 20.3284 9 19.5C9 18.6716 10.3431 18 12 18C13.6569 18 15 18.6716 15 19.5Z" stroke="black" stroke-linejoin="round"/>
<path d="M19.699 12.75C20.4165 13.1642 20.3265 14.6632 19.4981 16.0981C18.6696 17.533 17.4165 18.3604 16.699 17.9462C15.9816 17.532 16.0716 16.033 16.9 14.5981C17.7284 13.1632 18.9816 12.3358 19.699 12.75Z" stroke="black" stroke-linejoin="round"/>
</svg>
