<svg width="24" height="24" viewBox="0 0 24 24" fill="none" xmlns="http://www.w3.org/2000/svg">
<path d="M15.5 8C15.5 8.27614 15.7239 8.5 16 8.5C16.2761 8.5 16.5 8.27614 16.5 8H15.5ZM8 8H7.5H8ZM5.64645 18.6464C5.45118 18.8417 5.45118 19.1583 5.64645 19.3536C5.84171 19.5488 6.15829 19.5488 6.35355 19.3536L5.64645 18.6464ZM16.4472 18.2236C16.5707 17.9766 16.4706 17.6763 16.2236 17.5528C15.9766 17.4293 15.6763 17.5294 15.5528 17.7764L16.4472 18.2236ZM6 11.5C5.72386 11.5 5.5 11.7239 5.5 12C5.5 12.2761 5.72386 12.5 6 12.5V11.5ZM13 12.5C13.2761 12.5 13.5 12.2761 13.5 12C13.5 11.7239 13.2761 11.5 13 11.5V12.5ZM8.5 8C8.5 6.067 10.067 4.5 12 4.5V3.5C9.51472 3.5 7.5 5.51472 7.5 8H8.5ZM12 4.5C13.933 4.5 15.5 6.067 15.5 8H16.5C16.5 5.51472 14.4853 3.5 12 3.5V4.5ZM7.5 8C7.5 9.06251 7.69977 9.98546 7.90502 10.8222C8.11399 11.6742 8.31798 12.403 8.37647 13.1633C8.43333 13.9025 8.34958 14.6624 7.96466 15.532C7.57562 16.411 6.86919 17.4237 5.64645 18.6464L6.35355 19.3536C7.63081 18.0763 8.42438 16.964 8.87909 15.9367C9.33792 14.9001 9.44167 13.9725 9.37353 13.0867C9.30702 12.222 9.07351 11.3883 8.87623 10.584C8.67523 9.76454 8.5 8.93749 8.5 8H7.5ZM6.35355 19.3536C7.25856 18.4485 8.12583 18.1918 8.95263 18.2185C9.81534 18.2463 10.6723 18.5821 11.553 18.9596C11.9806 19.1428 12.4221 19.339 12.8427 19.4901C13.2642 19.6415 13.7018 19.762 14.1345 19.7808C14.5774 19.8 15.0202 19.7128 15.4313 19.4474C15.8364 19.1859 16.1703 18.7775 16.4472 18.2236L15.5528 17.7764C15.3297 18.2225 15.1011 18.4704 14.889 18.6073C14.6829 18.7403 14.4539 18.7937 14.178 18.7817C13.8919 18.7693 13.5639 18.6866 13.1808 18.549C12.7967 18.411 12.3944 18.2322 11.947 18.0404C11.0777 17.6679 10.0597 17.2537 8.98487 17.219C7.87417 17.1832 6.74144 17.5515 5.64645 18.6464L6.35355 19.3536ZM6 12.5H13V11.5H6V12.5Z" fill="black"/>
</svg>
