<svg width="24" height="24" viewBox="0 0 24 24" fill="none" xmlns="http://www.w3.org/2000/svg">
<path d="M13.5 9C13.5 9.27614 13.7239 9.5 14 9.5C14.2761 9.5 14.5 9.27614 14.5 9H13.5ZM8.64977 15.6432C8.45269 15.8366 8.44973 16.1531 8.64315 16.3502C8.83658 16.5473 9.15315 16.5503 9.35023 16.3568L8.64977 15.6432ZM15.4743 15.1581C15.5617 14.8961 15.4201 14.613 15.1581 14.5257C14.8961 14.4383 14.613 14.5799 14.5257 14.8419L15.4743 15.1581ZM9 11.5C8.72386 11.5 8.5 11.7239 8.5 12C8.5 12.2761 8.72386 12.5 9 12.5V11.5ZM13 12.5C13.2761 12.5 13.5 12.2761 13.5 12C13.5 11.7239 13.2761 11.5 13 11.5V12.5ZM10.5 9C10.5 8.1754 11.1723 7.5 12 7.5V6.5C10.6185 6.5 9.5 7.6246 9.5 9H10.5ZM12 7.5C12.8284 7.5 13.5 8.17157 13.5 9H14.5C14.5 7.61929 13.3807 6.5 12 6.5V7.5ZM9.5 9C9.5 9.65701 9.63971 10.2573 9.78196 10.8002C9.92862 11.3599 10.071 11.8379 10.1283 12.3363C10.1835 12.8169 10.1551 13.2954 9.95512 13.8161C9.753 14.3423 9.36361 14.9425 8.64977 15.6432L9.35023 16.3568C10.1364 15.5853 10.622 14.8688 10.8886 14.1746C11.1574 13.4747 11.1915 12.829 11.1217 12.2221C11.054 11.6329 10.8839 11.0603 10.7493 10.5467C10.6103 10.0162 10.5 9.52074 10.5 9H9.5ZM9.35023 16.3568C9.73549 15.9787 10.1493 15.8825 10.6163 15.9202C11.1201 15.961 11.6416 16.152 12.2305 16.3491C12.7669 16.5287 13.417 16.7366 14.0127 16.6333C14.3334 16.5776 14.6351 16.4343 14.8931 16.1749C15.1444 15.9223 15.3334 15.5809 15.4743 15.1581L14.5257 14.8419C14.4166 15.1691 14.2942 15.359 14.1842 15.4696C14.0809 15.5735 13.9711 15.6255 13.8417 15.648C13.537 15.7009 13.1317 15.5963 12.5479 15.4009C12.0164 15.223 11.3528 14.9765 10.6968 14.9235C10.0041 14.8675 9.2834 15.0213 8.64977 15.6432L9.35023 16.3568ZM9 12.5H13V11.5H9V12.5ZM20.5 12C20.5 16.6944 16.6944 20.5 12 20.5V21.5C17.2467 21.5 21.5 17.2467 21.5 12H20.5ZM12 20.5C7.30558 20.5 3.5 16.6944 3.5 12H2.5C2.5 17.2467 6.75329 21.5 12 21.5V20.5ZM3.5 12C3.5 7.30558 7.30558 3.5 12 3.5V2.5C6.75329 2.5 2.5 6.75329 2.5 12H3.5ZM12 3.5C16.6944 3.5 20.5 7.30558 20.5 12H21.5C21.5 6.75329 17.2467 2.5 12 2.5V3.5Z" fill="black"/>
</svg>
