<svg width="24" height="24" viewBox="0 0 24 24" fill="none" xmlns="http://www.w3.org/2000/svg">
<path d="M16.8293 7C16.9398 6.68722 17 6.35064 17 6C17 4.34315 15.6569 3 14 3C12.3431 3 11 4.34315 11 6C11 6.35064 11.0602 6.68722 11.1707 7H9C7.89543 7 7 7.89543 7 9V11.1707C6.68722 11.0602 6.35064 11 6 11C4.34315 11 3 12.3431 3 14C3 15.6569 4.34315 17 6 17C6.35064 17 6.68722 16.9398 7 16.8293V19C7 20.1046 7.89543 21 9 21H11.1707C11.0602 20.6872 11 20.3506 11 20C11 18.3431 12.3431 17 14 17C15.6569 17 17 18.3431 17 20C17 20.3506 16.9398 20.6872 16.8293 21H19C20.1046 21 21 20.1046 21 19V16.8293C20.6872 16.9398 20.3506 17 20 17C18.3431 17 17 15.6569 17 14C17 12.3431 18.3431 11 20 11C20.3506 11 20.6872 11.0602 21 11.1707V9C21 7.89543 20.1046 7 19 7H16.8293Z" stroke="black" stroke-linejoin="round"/>
</svg>
