<svg width="24" height="24" viewBox="0 0 24 24" fill="none" xmlns="http://www.w3.org/2000/svg">
<path d="M9 17C9 18.6569 7.65685 20 6 20C4.34315 20 3 18.6569 3 17C3 15.3431 4.34315 14 6 14C7.65685 14 9 15.3431 9 17ZM9 17L8.15304 5.14249C8.07034 3.98476 8.98727 3 10.148 3H16.1378C17.187 3 18.0579 3.81089 18.1327 4.8575L19 17M19 17C19 18.6569 17.6569 20 16 20C14.3431 20 13 18.6569 13 17C13 15.3431 14.3431 14 16 14C17.6569 14 19 15.3431 19 17Z" stroke="black" stroke-linecap="round" stroke-linejoin="round"/>
</svg>
