<svg width="24" height="24" viewBox="0 0 24 24" fill="none" xmlns="http://www.w3.org/2000/svg">
<path d="M9 17C9 18.6569 7.65685 20 6 20C4.34315 20 3 18.6569 3 17C3 15.3431 4.34315 14 6 14C7.51023 14 8.75983 15.1159 8.96916 16.5682M9 17L8.96916 16.5682M9 17C9 16.8534 8.98948 16.7092 8.96916 16.5682M20 18C20 19.6569 18.6569 21 17 21C15.3431 21 14 19.6569 14 18C14 16.3431 15.3431 15 17 15C18.5102 15 19.7598 16.1159 19.9692 17.5682M20 18L19.9692 17.5682M20 18C20 17.8534 19.9895 17.7092 19.9692 17.5682M8.96916 16.5682L8.16767 5.34734C8.0798 4.11717 9.11542 3.1014 10.3437 3.21306L17.3073 3.84611C18.2833 3.93485 19.0513 4.71781 19.1211 5.69541L19.9692 17.5682" stroke="black" stroke-linecap="round" stroke-linejoin="round"/>
</svg>
