<svg width="24" height="24" viewBox="0 0 24 24" fill="none" xmlns="http://www.w3.org/2000/svg">
<path d="M13 17C13 18.6569 11.6569 20 10 20C8.34315 20 7 18.6569 7 17C7 15.3431 10 11 10 11C10 11 13 15.3431 13 17Z" stroke="black" stroke-linecap="round" stroke-linejoin="round"/>
<path d="M20 9C20 10.1046 19.1046 11 18 11C16.8954 11 16 10.1046 16 9C16 7.89543 18 5 18 5C18 5 20 7.89543 20 9Z" stroke="black" stroke-linecap="round" stroke-linejoin="round"/>
<path d="M7 6.66667C7 7.40305 6.32843 8 5.5 8C4.67157 8 4 7.40305 4 6.66667C4 5.93029 5.5 4 5.5 4C5.5 4 7 5.93029 7 6.66667Z" stroke="black" stroke-linecap="round" stroke-linejoin="round"/>
</svg>
