<svg width="24" height="24" viewBox="0 0 24 24" fill="none" xmlns="http://www.w3.org/2000/svg">
<path d="M8 12C8 14.2091 9.79086 16 12 16C12.7286 16 13.4117 15.8052 14 15.4649M8 12L10 13M8 12L7 14M16 12C16 9.79086 14.2091 8 12 8C11.2714 8 10.5883 8.19479 10 8.53513M16 12L14 11M16 12L17 10M19 19H5C3.89543 19 3 18.1046 3 17V7C3 5.89543 3.89543 5 5 5H6.17157C6.70201 5 7.21071 4.78929 7.58579 4.41421L8.41421 3.58579C8.78929 3.21071 9.29799 3 9.82843 3H14.1716C14.702 3 15.2107 3.21071 15.5858 3.58579L16.4142 4.41421C16.7893 4.78929 17.298 5 17.8284 5H19C20.1046 5 21 5.89543 21 7V17C21 18.1046 20.1046 19 19 19Z" stroke="black" stroke-linecap="round" stroke-linejoin="round"/>
</svg>
