<svg width="24" height="24" viewBox="0 0 24 24" fill="none" xmlns="http://www.w3.org/2000/svg">
<path d="M3 17C3 17 3.40236 17.1507 4 17.3352M21 17C21 17 18.7394 17.8275 17 17.977M11 11H20L11 3V5M11 11V10M11 11V14M11 5L5 10H11M11 5V10M11 14H3L4 17.3352M11 14H21L17 17.977M4 17.3352C4.95045 17.6285 6.39477 18.007 7.5 18C8.73513 17.9922 10.386 17.5272 11.306 17.2341C11.7569 17.0905 12.2434 17.0903 12.6943 17.2341C13.6214 17.5296 15.2873 18 16.5 18C16.6597 18 16.8273 17.9918 17 17.977" stroke="black" stroke-linecap="round" stroke-linejoin="round"/>
</svg>
