<svg width="24" height="24" viewBox="0 0 24 24" fill="none" xmlns="http://www.w3.org/2000/svg">
<path d="M7 3H17M7 3V7.17157C7 7.70201 7.21071 8.21071 7.58579 8.58579L9.58579 10.5858C10.3668 11.3668 10.3668 12.6332 9.58579 13.4142L7.58579 15.4142C7.21071 15.7893 7 16.298 7 16.8284V21M7 3H6M17 3V7.17157C17 7.70201 16.7893 8.21071 16.4142 8.58579L14.4142 10.5858C13.6332 11.3668 13.6332 12.6332 14.4142 13.4142L16.4142 15.4142C16.7893 15.7893 17 16.298 17 16.8284V21M17 3H18M17 21H7M17 21H18M7 21H6" stroke="black" stroke-linecap="round" stroke-linejoin="round"/>
</svg>
