<svg width="24" height="24" viewBox="0 0 24 24" fill="none" xmlns="http://www.w3.org/2000/svg">
<path d="M20 6L8.47347 14.9651M20 18L8.47347 9.03492M8.47347 9.03492C8.80345 8.61127 9 8.07859 9 7.5C9 6.11929 7.88071 5 6.5 5C5.11929 5 4 6.11929 4 7.5C4 8.88071 5.11929 10 6.5 10C7.30212 10 8.01601 9.62224 8.47347 9.03492ZM8.47347 14.9651C8.01601 14.3778 7.30212 14 6.5 14C5.11929 14 4 15.1193 4 16.5C4 17.8807 5.11929 19 6.5 19C7.88071 19 9 17.8807 9 16.5C9 15.9214 8.80345 15.3887 8.47347 14.9651Z" stroke="black" stroke-linecap="round" stroke-linejoin="round"/>
</svg>
