<svg width="24" height="24" viewBox="0 0 24 24" fill="none" xmlns="http://www.w3.org/2000/svg">
<path d="M13 17C13 18.6569 11.6569 20 10 20C8.34315 20 7 18.6569 7 17C7 15.3431 8.34315 14 10 14C11.3633 14 12.5142 14.9093 12.8792 16.1546M13 17L12.8792 16.1546M13 17C13 17 12.9548 16.6838 12.8792 16.1546M13 17C13 16.7064 12.9578 16.4227 12.8792 16.1546M11 3C12 7 18 7 18 11M11 3C11 3 11.4353 6.04738 11.7143 8M11 3L11.7143 8M18 11C18 11 18 11 18 14M18 11V14M18 14C18 11 13 11 11.7143 8M11.7143 8C12.0958 10.6708 12.6399 14.4796 12.8792 16.1546" stroke="black" stroke-linecap="round" stroke-linejoin="round"/>
</svg>
