<svg width="24" height="24" viewBox="0 0 24 24" fill="none" xmlns="http://www.w3.org/2000/svg">
<path d="M9 17C9 18.6569 7.65685 20 6 20C4.34315 20 3 18.6569 3 17C3 15.3431 4.34315 14 6 14C7.51023 14 8.75983 15.1159 8.96916 16.5682M9 17L8.96916 16.5682M9 17C9 16.8534 8.98948 16.7092 8.96916 16.5682M19 17C19 18.6569 17.6569 20 16 20C14.3431 20 13 18.6569 13 17C13 15.3431 14.3431 14 16 14C17.5102 14 18.7598 15.1159 18.9692 16.5682M19 17L18.9692 16.5682M19 17C19 16.8534 18.9895 16.7092 18.9692 16.5682M8.21429 6L8.15304 5.14249C8.07034 3.98476 8.98727 3 10.148 3H16.1378C17.187 3 18.0579 3.81089 18.1327 4.8575L18.2143 6M8.21429 6H18.2143M8.21429 6L8.96916 16.5682M18.2143 6L18.9692 16.5682" stroke="black" stroke-linecap="round" stroke-linejoin="round"/>
</svg>
