<svg width="24" height="24" viewBox="0 0 24 24" fill="none" xmlns="http://www.w3.org/2000/svg">
<path d="M3 17C3 17 3.87874 17.3292 4.96783 17.6099M21 17C21 17 20.1007 17.3292 19 17.6099M19 17.6099C18.1824 17.8183 17.2537 18 16.5 18C15.2873 18 13.6214 17.5296 12.6943 17.2341C12.2434 17.0903 11.7569 17.0905 11.306 17.2341C10.386 17.5272 8.73513 17.9922 7.5 18C6.72683 18.0049 5.78772 17.8211 4.96783 17.6099M19 17.6099C19 17.6099 21 14 21 11H14M4.96783 17.6099C4.96783 17.6099 4 14 4 11H6M6 11V7H8M6 11H14M14 11L13 7H11M11 7L10 4H8V7M11 7H8" stroke="black" stroke-linecap="round" stroke-linejoin="round"/>
</svg>
