<svg width="24" height="24" viewBox="0 0 24 24" fill="none" xmlns="http://www.w3.org/2000/svg">
<path d="M3 17.5C3 17.5 4.15827 17.9339 5.46335 18.2301M21 17.5C21 17.5 19.8145 17.9339 18.5 18.2301M18.5 18.2301C17.819 18.3835 17.1034 18.5 16.5 18.5C15.2873 18.5 13.6214 18.0296 12.6943 17.7341C12.2434 17.5903 11.7569 17.5905 11.306 17.7341C10.386 18.0272 8.73513 18.4922 7.5 18.5C6.87893 18.5039 6.15077 18.3861 5.46335 18.2301M18.5 18.2301L19.5891 14.0697C19.8286 13.1548 19.3946 12.1973 18.5487 11.7744L18 11.5M5.46335 18.2301L4.39904 14.0625C4.16615 13.1506 4.60059 12.1997 5.44242 11.7788L6 11.5M6 11.5L11.1056 8.94721C11.6686 8.66569 12.3314 8.66569 12.8944 8.94721L18 11.5M6 11.5V6.5C6 5.39543 6.89543 4.5 8 4.5H10M18 11.5V6.5C18 5.39543 17.1046 4.5 16 4.5H14M10 4.5V4.5C10 3.67157 10.6716 3 11.5 3H12.5C13.3284 3 14 3.67157 14 4.5V4.5M10 4.5H14" stroke="black" stroke-linecap="round" stroke-linejoin="round"/>
</svg>
