<svg width="24" height="24" viewBox="0 0 24 24" fill="none" xmlns="http://www.w3.org/2000/svg">
<path d="M4.00024 4H5.00005L6.00024 6M6.00024 6H18.7657C19.9577 6 20.8851 7.03613 20.7535 8.22086L20.1979 13.2209C20.0854 14.2337 19.2293 15 18.2102 15H8.00024C6.89567 15 6.00024 14.1046 6.00024 13V6ZM18.0002 20C18.0002 20.5523 17.5525 21 17.0002 21C16.448 21 16.0002 20.5523 16.0002 20C16.0002 19.4477 16.448 19 17.0002 19C17.5525 19 18.0002 19.4477 18.0002 20ZM9.00024 20C9.00024 20.5523 8.55253 21 8.00024 21C7.44796 21 7.00024 20.5523 7.00024 20C7.00024 19.4477 7.44796 19 8.00024 19C8.55253 19 9.00024 19.4477 9.00024 20Z" stroke="black" stroke-linecap="round" stroke-linejoin="round"/>
</svg>
