<svg width="24" height="24" viewBox="0 0 24 24" fill="none" xmlns="http://www.w3.org/2000/svg">
<path d="M7 14C6.84318 14 6.67459 14 6.50019 14C5.11947 14 4 12.8807 4 11.5V11.5C4 10.1193 5.11929 9 6.5 9H7.00006M7 14V14C6.4262 14 5.93973 14.4219 5.85858 14.9899L5.25878 19.1886C5.1222 20.1446 5.86406 21 6.82983 21V21C7.5256 21 8.14024 20.5468 8.34591 19.8821L10 14.5366M7 14C7.00003 12.0474 7.00006 9 7.00006 9M7 14L16 15.6098M7.00006 9L16 7M16 7L20 5V17L16 15.6098M16 7V15.6098" stroke="black" stroke-linecap="round" stroke-linejoin="round"/>
</svg>
