<svg width="24" height="24" viewBox="0 0 24 24" fill="none" xmlns="http://www.w3.org/2000/svg">
<path d="M8.99988 11L10 3M14.9999 11L14 3M19 11V11C20.0158 11 20.7612 10.0453 20.5149 9.05982L19.3787 4.51495C19.1561 3.62461 18.3562 3 17.4384 3H14M19 11V19C19 20.1046 18.1046 21 17 21H14M19 11H4.99999M4.99999 11V11C3.98404 11 3.23859 10.0452 3.485 9.05961L4.62125 4.5149C4.84384 3.62458 5.6438 3 6.56153 3H10M4.99999 11V19C4.99999 20.1046 5.89543 21 6.99999 21H10M14 21V17C14 15.8954 13.1046 15 12 15V15C10.8954 15 10 15.8954 10 17V21M14 21H10M14 3H10" stroke="black" stroke-linejoin="round"/>
</svg>
