<svg width="24" height="24" viewBox="0 0 24 24" fill="none" xmlns="http://www.w3.org/2000/svg">
<path d="M10 4V3M16 6L16.5455 5.45454M3 11H2M4 6L3.45455 5.45455M3.45455 16.5L4 16M7.70523 14.2767C6.67406 13.5532 6 12.3553 6 11C6 8.79086 7.79086 7 10 7C11.8645 7 13.4311 8.27572 13.8745 10.0019M7.70523 14.2767C7.26088 14.7643 7 15.3587 7 16C7 17.6569 8.74112 19 10.8889 19H14H17.1111C19.2589 19 21 17.6569 21 16C21 14.5302 19.6299 13.3073 17.8212 13.0499C17.4812 11.3134 15.8997 10 14 10C13.958 10 13.9162 10.0006 13.8745 10.0019M7.70523 14.2767C8.27921 13.6468 9.15932 13.195 10.1788 13.0499C10.5113 11.3518 12.031 10.0583 13.8745 10.0019" stroke="black" stroke-linecap="round" stroke-linejoin="round"/>
</svg>
