<svg width="24" height="24" viewBox="0 0 24 24" fill="none" xmlns="http://www.w3.org/2000/svg">
<path d="M6 16L7 14M15 8L18 16M15 8H12L11 10H8L6 8H3L4 11M15 8L14.3333 6M15 8L15.75 10M12 5H14L14.3333 6M7 14L8.52108 14.3732M7 14L4.777 13.2598M14.3333 6H18L20 10H17.875H15.75M4 11H2M4 11L4.777 13.2598M8.52108 14.3732C8.8241 14.8419 9 15.4004 9 16C9 17.6569 7.65685 19 6 19C4.34315 19 3 17.6569 3 16C3 14.7887 3.74346 13.7335 4.777 13.2598M8.52108 14.3732L13 14L15.75 10M21 16C21 17.6569 19.6569 19 18 19C16.3431 19 15 17.6569 15 16C15 14.3431 16.3431 13 18 13C19.6569 13 21 14.3431 21 16Z" stroke="black" stroke-linecap="round" stroke-linejoin="round"/>
</svg>
