<svg width="24" height="24" viewBox="0 0 24 24" fill="none" xmlns="http://www.w3.org/2000/svg">
<path d="M4 20H20M15 8.5L17.5287 7.65709C17.8382 7.55393 18.1682 7.52804 18.49 7.58167L20.5434 7.9239C20.8303 7.97171 21.0769 8.15389 21.207 8.41401V8.41401C21.382 8.76396 21.3134 9.18661 21.0367 9.46327L20.3001 10.1999C20.1022 10.3978 19.865 10.5519 19.6039 10.6524L7.3466 15.3667C7.11749 15.4548 6.87412 15.5 6.62864 15.5H6.32843C5.79799 15.5 5.28929 15.2893 4.91421 14.9142L3.4604 13.4604C3.01916 13.0192 3.19653 12.2678 3.78852 12.0705V12.0705C3.9271 12.0243 4.07535 12.0151 4.21859 12.0437L5.76568 12.3531C6.23918 12.4478 6.73094 12.368 7.15019 12.1285L10 10.5L7.18501 7.68501C6.60203 7.10203 6.76152 6.11924 7.49893 5.75054V5.75054C7.81672 5.59164 8.18835 5.58072 8.51492 5.72068L15 8.5Z" stroke="black" stroke-linecap="round" stroke-linejoin="round"/>
</svg>
