<svg width="24" height="24" viewBox="0 0 24 24" fill="none" xmlns="http://www.w3.org/2000/svg">
<path d="M6 14C5.8506 14 5.68104 14 5.50035 14C4.11964 14 3 12.8807 3 11.5V11.5C3 10.1193 4.11929 9 5.5 9H6M6 14V14C5.42294 14 4.93047 14.4172 4.8356 14.9864L4.20558 18.7665C4.09797 19.4122 4.5959 20 5.2505 20V20C5.69964 20 6.09996 19.7168 6.24945 19.2932L8 14.3333M6 14C6.00002 12.2915 6 9 6 9M6 14L12 15M6 9L12 8M12 8L16 6V17L12 15M12 8V15M19 11H21M19 7L21 6M19 15L21 16" stroke="black" stroke-linecap="round" stroke-linejoin="round"/>
</svg>
