<svg width="24" height="24" viewBox="0 0 24 24" fill="none" xmlns="http://www.w3.org/2000/svg">
<path d="M12 15C11.4477 15 11 15.4477 11 16C11 16.5523 11.4477 17 12 17C12.5523 17 13 16.5523 13 16C13 15.4477 12.5523 15 12 15ZM12 15V7M9 5.95455C9 4.3228 10.3431 3 12 3C13.6569 3 15 4.3228 15 5.95455V12.6458C15.9206 13.4698 16.5 14.6673 16.5 16C16.5 18.4853 14.4853 20.5 12 20.5C9.51472 20.5 7.5 18.4853 7.5 16C7.5 14.6673 8.07938 13.4698 9 12.6458V5.95455Z" stroke="black" stroke-linecap="round" stroke-linejoin="round"/>
</svg>
