<svg width="24" height="24" viewBox="0 0 24 24" fill="none" xmlns="http://www.w3.org/2000/svg">
<path d="M12 3C10.3431 3 9 4.3228 9 5.95455V12.6458C8.07938 13.4698 7.5 14.6673 7.5 16C7.5 18.4853 9.51472 20.5 12 20.5C14.4853 20.5 16.5 18.4853 16.5 16C16.5 14.6673 15.9206 13.4698 15 12.6458V5.95455C15 4.3228 13.6569 3 12 3Z" stroke="black" stroke-linecap="round" stroke-linejoin="round"/>
<path d="M13 16C13 16.5523 12.5523 17 12 17C11.4477 17 11 16.5523 11 16C11 15.4477 11.4477 15 12 15C12.5523 15 13 15.4477 13 16Z" stroke="black" stroke-linecap="round" stroke-linejoin="round"/>
</svg>
