<svg width="24" height="24" viewBox="0 0 24 24" fill="none" xmlns="http://www.w3.org/2000/svg">
<path d="M12.9726 15C12.9908 15.1642 13.0001 15.331 13.0001 15.5C13.0001 17.9853 10.9854 20 8.50011 20C7.16736 20 5 20 4 20C6 18 5 16 5 14.5C5 13 7 11 8.50011 11C8.66907 11 8.83587 11.0093 9 11.0275M12.9726 15C12.7421 12.9142 11.0859 11.258 9 11.0275M12.9726 15C13.9367 14.0447 14.9993 12.8866 16 11.6548M9 11.0275C9.86554 10.154 10.8976 9.19957 12 8.28362M12 8.28362C14.7187 6.02485 17.8655 4 20 4C20 6.0447 18.1419 9.01846 16 11.6548M12 8.28362C14.5 9 15 9.5 16 11.6548" stroke="black" stroke-linejoin="round"/>
</svg>
