<svg width="24" height="24" viewBox="0 0 24 24" fill="none" xmlns="http://www.w3.org/2000/svg">
<path d="M8 6C8 7.10457 7.10457 8 6 8M8 6C8 4.89543 7.10457 4 6 4C4.89543 4 4 4.89543 4 6C4 7.10457 4.89543 8 6 8M8 6H16M6 8V16M16 6C16 7.10457 16.8954 8 18 8M16 6C16 4.89543 16.8954 4 18 4C19.1046 4 20 4.89543 20 6C20 7.10457 19.1046 8 18 8M6 16C4.89543 16 4 16.8954 4 18C4 19.1046 4.89543 20 6 20C7.10457 20 8 19.1046 8 18M6 16C7.10457 16 8 16.8954 8 18M8 18H16M16 18C16 19.1046 16.8954 20 18 20C19.1046 20 20 19.1046 20 18C20 16.8954 19.1046 16 18 16M16 18C16 16.8954 16.8954 16 18 16M18 16V8" stroke="black" stroke-linejoin="round"/>
</svg>
