<svg width="24" height="24" viewBox="0 0 24 24" fill="none" xmlns="http://www.w3.org/2000/svg">
<path d="M12 13C14.7614 13 17 10.7614 17 8C17 5.23858 14.7614 3 12 3C9.23858 3 7 5.23858 7 8C7 10.7614 9.23858 13 12 13ZM12 13C11.3033 14.0182 11 15 11 16C11 17 11.3721 18.1647 12 19.0005M12 13C10.3642 13 8.91221 12.2144 8 11C5.23858 11 3 13.2386 3 16C3 18.7614 5.23858 21 8 21C9.6356 21 11.0878 20.2147 12 19.0005M12 13C13.6358 13 15.0878 12.2144 16 11C18.7614 11 21 13.2386 21 16C21 18.7614 18.7614 21 16 21C14.3644 21 12.9122 20.2147 12 19.0005" stroke="black" stroke-linejoin="round"/>
</svg>
