<svg width="24" height="24" viewBox="0 0 24 24" fill="none" xmlns="http://www.w3.org/2000/svg">
<path d="M15 5H5C3.89543 5 3 5.89543 3 7V17H4.26756C4.61337 16.4022 5.25972 16 6 16M15 5V12M15 5V8M15 8H18C19.6569 8 21 9.34315 21 11V12M15 8V12M15 16C14.2597 16 13.6134 16.4022 13.2676 17M15 16C15.3643 16 15.7058 16.0974 16 16.2676C16.3036 16.4432 16.5568 16.6964 16.7324 17M15 16V12M13.2676 17C13.0974 17.2942 13 17.6357 13 18C13 19.1046 13.8954 20 15 20C16.1046 20 17 19.1046 17 18C17 17.6357 16.9026 17.2942 16.7324 17M13.2676 17H7.73244C7.38663 16.4022 6.74028 16 6 16M6 16C4.89543 16 4 16.8954 4 18C4 19.1046 4.89543 20 6 20C7.10457 20 8 19.1046 8 18C8 16.8954 7.10457 16 6 16ZM16.7324 17H20C20.5523 17 21 16.5523 21 16V12M21 12H15" stroke="black" stroke-linejoin="round"/>
</svg>
