<svg width="24" height="24" viewBox="0 0 24 24" fill="none" xmlns="http://www.w3.org/2000/svg">
<path d="M20 20L12.9968 12.9969M6.62187 6.65024C5.00152 8.27779 4 10.5219 4 13C4 15.1122 4.72765 17.0545 5.94595 18.5899C6.28936 19.0227 6.92779 19.022 7.31986 18.6328L10 16M6.62187 6.65024C8.25165 5.01322 10.5075 4 13 4C15.1357 4 17.0976 4.74389 18.6409 5.9867C19.0712 6.33323 19.0659 6.97166 18.6738 7.3609L16 10M6.62187 6.65024C6.62187 6.65024 10.5937 7.163 12.9968 8C14.405 8.49045 16 10 16 10M6.62187 6.65024C6.62187 6.65024 7.17962 10.5969 8 12.9969C8.4798 14.4005 10 16 10 16M10 16L16 10" stroke="black" stroke-linecap="round" stroke-linejoin="round"/>
</svg>
