<svg width="24" height="24" viewBox="0 0 24 24" fill="none" xmlns="http://www.w3.org/2000/svg">
<path d="M9 8C7.78565 8.91221 7 10.3643 7 12C7 13.6358 7.78555 15.0882 9 16.0004M9 8C9.83569 7.37223 10.8743 7 12 7C13.1256 7 14.1643 7.37194 15 7.99963M9 8V5C9 3.89543 9.89543 3 11 3H13C14.1046 3 15 3.89543 15 5V7.99963M15 7.99963C16.2144 8.91184 17 10.3642 17 12C17 13.6358 16.2144 15.0882 15 16.0004M15 16.0004C14.1643 16.6281 13.1256 17 12 17C10.8744 17 9.83566 16.6281 9 16.0004M15 16.0004V19C15 20.1046 14.1046 21 13 21H11C9.89543 21 9 20.1046 9 19V16.0004M11 13L11.4142 12.5858C11.7893 12.2107 12 11.702 12 11.1716V10" stroke="black" stroke-linecap="round" stroke-linejoin="round"/>
</svg>
