<svg width="24" height="24" viewBox="0 0 24 24" fill="none" xmlns="http://www.w3.org/2000/svg">
<path d="M6 12.3333L4.1001 10.2223C3.46087 9.51208 3.42492 8.45317 4.15063 7.83153C5.52889 6.65093 8.14535 5 12 5C15.8547 5 18.4711 6.65093 19.8494 7.83153C20.5751 8.45317 20.5391 9.51208 19.8999 10.2223L18 12.3333M6 12.3333C6 12.3333 7 9 12 9C17 9 18 12.3333 18 12.3333M6 12.3333L8.4 15M18 12.3333L15.5587 15.0459M8.4 15L10.5134 17.3482C11.3079 18.231 12.6921 18.231 13.4866 17.3482L15.5587 15.0459M8.4 15C8.4 15 9 13 12 13C15 13 15.5587 15.0459 15.5587 15.0459" stroke="black" stroke-linecap="round" stroke-linejoin="round"/>
</svg>
