<svg width="24" height="24" viewBox="0 0 24 24" fill="none" xmlns="http://www.w3.org/2000/svg">
<path d="M8 16L8.5 12L9 9L12 6M8 16L12 15.5L15 15L18 12M8 16L12.5 11.5M18 12L12 6M18 12L18.5 12.5L20.8166 10.1834M12 6L11.5 5.5L13.8166 3.18342M13.8166 3.18342C13.2298 3.06316 12.6223 3 12 3C7.02944 3 3 7.02944 3 12C3 16.9706 7.02944 21 12 21C16.9706 21 21 16.9706 21 12C21 11.3777 20.9368 10.7702 20.8166 10.1834M13.8166 3.18342C17.3296 3.90344 20.0966 6.67038 20.8166 10.1834" stroke="black" stroke-linecap="round" stroke-linejoin="round"/>
</svg>
