<svg width="24" height="24" viewBox="0 0 24 24" fill="none" xmlns="http://www.w3.org/2000/svg">
<path d="M4 20L5.77752 10.2236C5.91375 9.47439 6.46362 8.86754 7.19582 8.65834L13 7M4 20L13.7764 18.2225C14.5256 18.0863 15.1325 17.5364 15.3417 16.8042L17 11M4 20L9.43934 14.5607M13 7L17 11M13 7L13.6467 6.02988C14.3468 4.97975 15.8326 4.83263 16.7251 5.72506L18.2749 7.27494C19.1674 8.16737 19.0202 9.65317 17.9701 10.3533L17 11M9.43934 14.5607C9.16789 14.2892 9 13.9142 9 13.5M9.43934 14.5607C9.71079 14.8321 10.0858 15 10.5 15M10.5 15C11.3284 15 12 14.3284 12 13.5C12 12.6716 11.3284 12 10.5 12C9.67157 12 9 12.6716 9 13.5M10.5 15C9.67157 15 9 14.3284 9 13.5" stroke="black" stroke-linecap="round" stroke-linejoin="round"/>
</svg>
