<?xml version="1.0" encoding="iso-8859-1"?>
<!-- Uploaded to: SVG Repo, www.svgrepo.com, Generator: SVG Repo Mixer Tools -->
<!DOCTYPE svg PUBLIC "-//W3C//DTD SVG 1.1//EN" "http://www.w3.org/Graphics/SVG/1.1/DTD/svg11.dtd">
<svg fill="#000000" version="1.1" id="Capa_1" xmlns="http://www.w3.org/2000/svg" xmlns:xlink="http://www.w3.org/1999/xlink" 
	 width="800px" height="800px" viewBox="0 0 97.707 97.707"
	 xml:space="preserve">
<g>
	<path d="M91.354,0.004H86.67c-1.104,0-2,0.896-2,2v87.021l-54.68-0.01c-3.983,0-7.225-3.24-7.225-7.223s3.241-7.225,7.225-7.225
		H72.69c1.104,0,2-0.896,2-2V2c0-1.104-0.896-2-2-2H27.337C14.665,0,4.354,10.311,4.354,22.985v51.74
		c0,12.672,10.311,22.982,22.984,22.982h64.016c1.104,0,2-0.896,2-2V2.004C93.354,0.9,92.457,0.004,91.354,0.004z M29.188,10.02
		c0-1.93,1.57-3.5,3.5-3.5s3.5,1.57,3.5,3.5v54.5c0,1.931-1.57,3.5-3.5,3.5s-3.5-1.569-3.5-3.5V10.02z"/>
</g>
</svg>