<?xml version="1.0" encoding="utf-8"?>

<!-- Uploaded to: SVG Repo, www.svgrepo.com, Generator: SVG Repo Mixer Tools -->
<svg fill="#000000" height="800px" width="800px" version="1.1" id="Icons" xmlns="http://www.w3.org/2000/svg" xmlns:xlink="http://www.w3.org/1999/xlink" 
	 viewBox="0 0 32 32" xml:space="preserve">
<g>
	<path d="M30,15c-1.2,0-2.3,0.6-2.9,1.7c-0.4,0.7-0.9,1.3-1.5,1.8c-0.4,0.4-0.5,1-0.1,1.4c0.2,0.2,0.5,0.4,0.8,0.4
		c0.2,0,0.5-0.1,0.6-0.2c0.8-0.7,1.5-1.4,2-2.3c0.3-0.4,0.7-0.7,1.1-0.7c0.6,0,1-0.4,1-1S30.6,15,30,15z"/>
	<path d="M27.5,11.6c-0.4-0.4-1-0.4-1.4,0c-0.6,0.6-1.5,0.8-2.3,0.5c-0.4-0.1-0.7,0-1,0.2l-3.3,3.3c-1,1-2.7,1.1-4,0.3l3.2-3.2l1-1
		c0.4-0.4,0.4-1,0-1.4s-1-0.4-1.4,0L17.6,11h-2.8c1.3-1.9,3.4-3,5.7-3H30c0.6,0,1-0.4,1-1s-0.4-1-1-1h-9.5c-3.4,0-6.5,2-8,5H5
		c-1.7,0-3,1.3-3,3v1h2h9.6l-0.3,0.3c-0.4,0.4-0.4,1,0,1.4c0.1,0.1,0.2,0.2,0.4,0.3H4H3H2v7c0,1.7,1.3,3,3,3h17c1.7,0,3-1.3,3-3
		v-9.8c0.9-0.1,1.8-0.5,2.5-1.2C27.9,12.6,27.9,12,27.5,11.6z M9,23H7c-0.6,0-1-0.4-1-1s0.4-1,1-1h2c0.6,0,1,0.4,1,1S9.6,23,9,23z
		 M19,23c-0.6,0-1.1-0.3-1.5-0.7C17.1,22.7,16.6,23,16,23c-1.1,0-2-0.9-2-2s0.9-2,2-2c0.6,0,1.1,0.3,1.5,0.7
		c0.4-0.4,0.9-0.7,1.5-0.7c1.1,0,2,0.9,2,2S20.1,23,19,23z"/>
</g>
</svg>