<?xml version="1.0" encoding="iso-8859-1"?>
<!-- Uploaded to: SVG Repo, www.svgrepo.com, Generator: SVG Repo Mixer Tools -->
<!DOCTYPE svg PUBLIC "-//W3C//DTD SVG 1.1//EN" "http://www.w3.org/Graphics/SVG/1.1/DTD/svg11.dtd">
<svg fill="#000000" version="1.1" id="Capa_1" xmlns="http://www.w3.org/2000/svg" xmlns:xlink="http://www.w3.org/1999/xlink" 
	 width="800px" height="800px" viewBox="0 0 95.098 95.098"
	 xml:space="preserve">
<g>
	<path d="M47.549,0C21.288,0,0,21.287,0,47.549c0,26.26,21.288,47.549,47.549,47.549c26.262,0,47.549-21.289,47.549-47.549
		C95.098,21.287,73.811,0,47.549,0z M55.615,80.057c0,0.775-0.629,1.404-1.405,1.404H40.889c-0.775,0-1.404-0.629-1.404-1.404
		V67.738c0-0.776,0.629-1.405,1.404-1.405H54.21c0.776,0,1.405,0.629,1.405,1.405V80.057z M55.642,57.777
		c-0.021,0.762-0.644,1.366-1.403,1.366H40.862c-0.761,0-1.384-0.604-1.404-1.364l-1.18-42.699
		c-0.011-0.379,0.133-0.746,0.397-1.018c0.265-0.272,0.627-0.426,1.007-0.426h15.732c0.38,0,0.742,0.153,1.007,0.426
		c0.265,0.271,0.407,0.639,0.397,1.018L55.642,57.777z"/>
</g>
</svg>